# 3ds Max Wavefront OBJ Exporter v0.97b - (c)2007 guruware
# File Created: 14.11.2021 18:17:41

mtllib BasketBall_Board.mtl

#
# object Board_BasketBall_Board_group
#

v  -32.7050 88.9584 24.8499
v  33.8950 88.9584 24.8499
v  33.8950 51.4481 24.8499
v  -32.7050 51.4481 24.8499
v  -32.7050 88.9584 28.7097
v  -32.7050 51.4481 28.7097
v  33.8950 88.9584 28.7097
v  33.8950 51.4481 28.7097
v  -6.4607 57.4489 35.3806
v  -7.6271 57.4489 39.6168
v  -9.1829 57.4489 39.6168
v  -7.8016 57.4489 34.6002
v  -6.4607 60.4489 35.3806
v  -7.6271 60.4489 39.6168
v  -7.8016 60.4489 34.6002
v  -9.1829 60.4489 39.6168
v  -3.6412 57.4489 32.5611
v  -4.4216 57.4489 31.2202
v  -3.6412 60.4489 32.5611
v  -4.4216 60.4489 31.2202
v  0.5950 57.4489 31.3947
v  0.5950 60.4489 31.3947
v  0.5950 60.4489 29.8389
v  -25.1907 81.8276 5.2416
v  -19.9491 81.8276 0.0000
v  -25.1907 81.8276 -5.2416
v  -30.4323 81.8276 0.0000
v  5.6116 57.4489 31.2202
v  4.8312 57.4489 32.5611
v  4.8312 60.4489 32.5611
v  5.6116 60.4489 31.2202
v  -28.8991 81.8276 -3.7084
v  7.6506 57.4489 35.3806
v  8.9916 57.4489 34.6002
v  7.6506 60.4489 35.3806
v  8.9916 60.4489 34.6002
v  8.8171 57.4489 39.6168
v  10.3729 57.4489 39.6168
v  8.8171 60.4489 39.6168
v  10.3729 60.4489 39.6168
v  7.6506 57.4489 43.8530
v  8.9916 57.4489 44.6334
v  7.6506 60.4489 43.8530
v  8.9916 60.4489 44.6334
v  4.8312 57.4489 46.6724
v  5.6116 57.4489 48.0134
v  4.8312 60.4489 46.6724
v  5.6116 60.4489 48.0134
v  0.5950 57.4489 47.8389
v  0.5950 57.4489 49.3947
v  0.5950 60.4489 47.8389
v  0.5950 60.4489 49.3947
v  -3.6412 57.4489 46.6724
v  -4.4216 57.4489 48.0134
v  -3.6412 60.4489 46.6724
v  -4.4216 60.4489 48.0134
v  -6.4607 57.4489 43.8530
v  -7.8016 57.4489 44.6334
v  -6.4607 60.4489 43.8530
v  -7.8016 60.4489 44.6334
v  0.5950 60.4489 28.5058
v  -4.4216 60.4489 28.5065
v  -4.4216 57.4489 28.5065
v  5.6116 60.4489 28.5065
v  5.6116 57.4489 28.5065
v  -4.4216 55.7805 28.5065
v  0.5950 55.7805 28.5058
v  -21.4822 81.8276 3.7084
v  5.6116 55.7805 28.5065
v  -28.8991 81.8276 3.7084
v  26.1245 48.2869 0.9873
v  26.1245 68.0199 18.3547
v  24.8093 67.6606 18.7629
v  24.8093 47.9277 1.3955
v  26.6683 49.1559 0.0000
v  26.6683 68.8888 17.3674
v  26.1245 50.0248 -0.9873
v  26.1245 69.7578 16.3801
v  24.8093 50.3840 -1.3955
v  24.8093 70.1170 15.9720
v  23.4941 50.0248 -0.9873
v  23.4941 69.7578 16.3801
v  22.9504 49.1559 0.0000
v  22.9504 68.8888 17.3674
v  23.4941 48.2869 0.9873
v  23.4941 68.0199 18.3547
v  27.2050 66.4932 0.0000
v  27.2050 66.4932 24.8499
v  24.8093 65.5027 24.8499
v  24.8093 65.5027 0.0000
v  28.1954 68.8888 0.0000
v  28.1954 68.8888 24.8499
v  27.2050 71.2845 0.0000
v  27.2050 71.2845 24.8499
v  24.8093 72.2749 0.0000
v  24.8093 72.2749 24.8499
v  22.4137 71.2845 0.0000
v  22.4137 71.2845 24.8499
v  21.4232 68.8888 0.0000
v  21.4232 68.8888 24.8499
v  22.4137 66.4932 0.0000
v  22.4137 66.4932 24.8499
v  24.8093 81.8276 -5.2416
v  28.5178 81.8276 -3.7084
v  28.5178 28.8904 -3.7084
v  24.8093 28.8904 -5.2416
v  30.0509 81.8276 0.0000
v  30.0509 28.8904 0.0000
v  28.5178 81.8276 3.7084
v  28.5178 28.8904 3.7084
v  24.8093 81.8276 5.2416
v  24.8093 28.8904 5.2416
v  21.1009 81.8276 3.7084
v  21.1009 28.8904 3.7084
v  19.5677 81.8276 0.0000
v  19.5677 28.8904 0.0000
v  21.1009 81.8276 -3.7084
v  21.1009 28.8904 -3.7084
v  33.5136 0.0000 0.0000
v  30.9676 0.0000 -6.1583
v  30.9676 28.8904 -6.1583
v  33.5136 28.8904 0.0000
v  30.9676 0.0000 6.1583
v  30.9676 28.8904 6.1583
v  24.8093 0.0000 8.7043
v  24.8093 28.8904 8.7043
v  18.6510 0.0000 6.1583
v  18.6510 28.8904 6.1583
v  16.1050 0.0000 0.0000
v  16.1050 28.8904 0.0000
v  18.6510 0.0000 -6.1583
v  18.6510 28.8904 -6.1583
v  24.8093 0.0000 -8.7043
v  24.8093 28.8904 -8.7043
v  -23.8755 48.2869 0.9873
v  -23.8755 68.0199 18.3547
v  -25.1907 67.6606 18.7629
v  -25.1907 47.9277 1.3955
v  -23.3317 49.1559 0.0000
v  -23.3317 68.8888 17.3674
v  -23.8755 50.0248 -0.9873
v  -23.8755 69.7578 16.3801
v  -25.1907 50.3840 -1.3955
v  -25.1907 70.1170 15.9720
v  -26.5059 50.0248 -0.9873
v  -26.5059 69.7578 16.3801
v  -27.0496 49.1559 0.0000
v  -27.0496 68.8888 17.3674
v  -26.5059 48.2869 0.9873
v  -26.5059 68.0199 18.3547
v  -22.7950 66.4932 0.0000
v  -22.7950 66.4932 24.8499
v  -25.1907 65.5027 24.8499
v  -25.1907 65.5027 0.0000
v  -21.8046 68.8888 0.0000
v  -21.8046 68.8888 24.8499
v  -22.7950 71.2845 0.0000
v  -22.7950 71.2845 24.8499
v  -25.1907 72.2749 0.0000
v  -25.1907 72.2749 24.8499
v  -27.5863 71.2845 0.0000
v  -27.5863 71.2845 24.8499
v  -28.5768 68.8888 0.0000
v  -28.5768 68.8888 24.8499
v  -27.5863 66.4932 0.0000
v  -27.5863 66.4932 24.8499
v  -21.4822 81.8276 -3.7084
v  -21.4822 28.8904 -3.7084
v  -25.1907 28.8904 -5.2416
v  -19.9491 28.8904 0.0000
v  -21.4822 28.8904 3.7084
v  -25.1907 28.8904 5.2416
v  -28.8991 28.8904 3.7084
v  -30.4323 28.8904 0.0000
v  -28.8991 28.8904 -3.7084
v  -16.4864 0.0000 0.0000
v  -19.0324 0.0000 -6.1583
v  -19.0324 28.8904 -6.1583
v  -16.4864 28.8904 0.0000
v  -19.0324 0.0000 6.1583
v  -19.0324 28.8904 6.1583
v  -25.1907 0.0000 8.7043
v  -25.1907 28.8904 8.7043
v  -31.3490 0.0000 6.1583
v  -31.3490 28.8904 6.1583
v  -33.8950 0.0000 0.0000
v  -33.8950 28.8904 0.0000
v  -31.3490 0.0000 -6.1583
v  -31.3490 28.8904 -6.1583
v  -25.1907 0.0000 -8.7043
v  -25.1907 28.8904 -8.7043
# 191 vertices

vn 0.0000 0.0000 -1.0000
vn -1.0000 0.0000 -0.0000
vn -0.0000 0.0000 1.0000
vn 1.0000 0.0000 0.0000
vn 0.0000 1.0000 -0.0000
vn 0.0000 -1.0000 0.0000
vn 0.8643 0.0000 0.5030
vn -0.8643 0.0000 -0.5030
vn -0.0031 -0.9843 0.1763
vn 0.5030 0.0000 0.8643
vn -0.7071 0.0000 -0.7071
vn -0.0001 -0.9641 0.2655
vn 0.0030 -0.9843 0.1763
vn -0.5030 0.0000 0.8643
vn -0.8643 0.0000 0.5030
vn 0.8643 0.0000 -0.5030
vn 0.7071 0.0000 -0.7071
vn -1.0000 0.0000 0.0000
vn -0.5030 0.0000 -0.8643
vn 0.5030 0.0000 -0.8643
vn -0.0091 -0.8590 0.5119
vn -0.0002 -0.8590 0.5120
vn 0.0087 -0.8590 0.5119
vn 0.3821 -0.6106 0.6937
vn 0.9241 -0.2524 0.2868
vn 0.9241 0.2524 -0.2868
vn 0.3821 0.6106 -0.6937
vn -0.3821 0.6106 -0.6937
vn -0.9241 0.2524 -0.2868
vn -0.9241 -0.2524 0.2868
vn -0.3821 -0.6106 0.6937
vn 0.3821 -0.9241 0.0000
vn 0.9241 -0.3821 0.0000
vn 0.9241 0.3821 0.0000
vn 0.3821 0.9241 0.0000
vn -0.3821 0.9241 -0.0000
vn -0.9241 0.3821 -0.0000
vn -0.9241 -0.3821 -0.0000
vn -0.3821 -0.9241 -0.0000
vn 0.3821 0.0000 -0.9241
vn 0.9241 0.0000 -0.3821
vn 0.9241 0.0000 0.3821
vn 0.3821 0.0000 0.9241
vn -0.3821 0.0000 0.9241
vn -0.9241 0.0000 0.3821
vn -0.9241 0.0000 -0.3821
vn -0.3821 0.0000 -0.9241
# 47 vertex normals

vt 0.2204 0.5925 0.0000
vt 0.2193 0.9715 0.0000
vt 0.0058 0.9709 0.0000
vt 0.0070 0.5919 0.0000
vt 0.2424 0.5926 0.0000
vt 0.2425 0.5706 0.0000
vt 0.4559 0.5713 0.0000
vt 0.4559 0.5932 0.0000
vt 0.2412 0.9716 0.0000
vt 0.4547 0.9722 0.0000
vt 0.2412 0.9935 0.0000
vt 0.4546 0.9942 0.0000
vt 0.4778 0.5933 0.0000
vt 0.4767 0.9723 0.0000
vt 0.7287 0.6142 0.0000
vt 0.7413 0.6358 0.0000
vt 0.7498 0.6335 0.0000
vt 0.7349 0.6079 0.0000
vt 0.6159 0.5072 0.0000
vt 0.6277 0.4816 0.0000
vt 0.6120 0.4783 0.0000
vt 0.6033 0.4972 0.0000
vt 0.6228 0.5129 0.0000
vt 0.6371 0.4836 0.0000
vt 0.6036 0.2492 0.0000
vt 0.5740 0.2492 0.0000
vt 0.5740 0.2662 0.0000
vt 0.6036 0.2663 0.0000
vt 0.7090 0.6028 0.0000
vt 0.7114 0.5942 0.0000
vt 0.5952 0.5220 0.0000
vt 0.5893 0.5075 0.0000
vt 0.5989 0.5308 0.0000
vt 0.6308 0.2492 0.0000
vt 0.6308 0.2663 0.0000
vt 0.6840 0.6025 0.0000
vt 0.5671 0.5243 0.0000
vt 0.5703 0.5089 0.0000
vt 0.5648 0.5344 0.0000
vt 0.6878 0.5295 0.0000
vt 0.6488 0.5133 0.0000
vt 0.6649 0.4744 0.0000
vt 0.7039 0.4905 0.0000
vt 0.6562 0.6090 0.0000
vt 0.6625 0.6152 0.0000
vt 0.5428 0.5099 0.0000
vt 0.5540 0.4990 0.0000
vt 0.5356 0.5161 0.0000
vt 0.6878 0.4743 0.0000
vt 0.6512 0.6349 0.0000
vt 0.6426 0.6326 0.0000
vt 0.5308 0.4875 0.0000
vt 0.5464 0.4835 0.0000
vt 0.5222 0.4896 0.0000
vt 0.3716 0.2489 0.0000
vt 0.3444 0.2488 0.0000
vt 0.3443 0.2659 0.0000
vt 0.3715 0.2660 0.0000
vt 0.6510 0.6599 0.0000
vt 0.6425 0.6622 0.0000
vt 0.5316 0.4593 0.0000
vt 0.5473 0.4628 0.0000
vt 0.5222 0.4570 0.0000
vt 0.4012 0.2489 0.0000
vt 0.4011 0.2660 0.0000
vt 0.6637 0.6815 0.0000
vt 0.6575 0.6877 0.0000
vt 0.5440 0.4339 0.0000
vt 0.5564 0.4441 0.0000
vt 0.5373 0.4282 0.0000
vt 0.4308 0.2490 0.0000
vt 0.4308 0.2660 0.0000
vt 0.6833 0.6928 0.0000
vt 0.6810 0.7013 0.0000
vt 0.5646 0.4196 0.0000
vt 0.5703 0.4339 0.0000
vt 0.5611 0.4111 0.0000
vt 0.4580 0.2490 0.0000
vt 0.4580 0.2661 0.0000
vt 0.7083 0.6930 0.0000
vt 0.7105 0.7015 0.0000
vt 0.5920 0.4175 0.0000
vt 0.5889 0.4324 0.0000
vt 0.5943 0.4076 0.0000
vt 0.4876 0.2490 0.0000
vt 0.4876 0.2661 0.0000
vt 0.7298 0.6804 0.0000
vt 0.7360 0.6866 0.0000
vt 0.6157 0.4314 0.0000
vt 0.6047 0.4422 0.0000
vt 0.6226 0.4253 0.0000
vt 0.5172 0.2491 0.0000
vt 0.5172 0.2662 0.0000
vt 0.7411 0.6607 0.0000
vt 0.7496 0.6631 0.0000
vt 0.6278 0.4534 0.0000
vt 0.6124 0.4577 0.0000
vt 0.6364 0.4511 0.0000
vt 0.5444 0.2491 0.0000
vt 0.5444 0.2662 0.0000
vt 0.5626 0.5436 0.0000
vt 0.5962 0.5482 0.0000
vt 0.6463 0.2663 0.0000
vt 0.6463 0.2492 0.0000
vt 0.5303 0.5330 0.0000
vt 0.3289 0.2488 0.0000
vt 0.3289 0.2659 0.0000
vt 0.7067 0.5767 0.0000
vt 0.6791 0.5841 0.0000
vt 0.6463 0.2398 0.0000
vt 0.6649 0.5295 0.0000
vt 0.6515 0.5915 0.0000
vt 0.7039 0.5133 0.0000
vt 0.3289 0.2393 0.0000
vt 0.1676 0.2582 0.0000
vt 0.3172 0.2575 0.0000
vt 0.3173 0.2656 0.0000
vt 0.1677 0.2663 0.0000
vt 0.1676 0.2501 0.0000
vt 0.3172 0.2494 0.0000
vt 0.1676 0.2420 0.0000
vt 0.3172 0.2413 0.0000
vt 0.1675 0.2339 0.0000
vt 0.3171 0.2332 0.0000
vt 0.1675 0.2258 0.0000
vt 0.3171 0.2251 0.0000
vt 0.1674 0.2177 0.0000
vt 0.3170 0.2170 0.0000
vt 0.1674 0.2096 0.0000
vt 0.3170 0.2089 0.0000
vt 0.1674 0.2015 0.0000
vt 0.3169 0.2008 0.0000
vt 0.6636 0.2927 0.0000
vt 0.5222 0.2927 0.0000
vt 0.5222 0.2779 0.0000
vt 0.6636 0.2779 0.0000
vt 0.6636 0.3074 0.0000
vt 0.5222 0.3074 0.0000
vt 0.6636 0.3222 0.0000
vt 0.5222 0.3222 0.0000
vt 0.6636 0.3369 0.0000
vt 0.5222 0.3370 0.0000
vt 0.6636 0.3517 0.0000
vt 0.5222 0.3517 0.0000
vt 0.6636 0.3665 0.0000
vt 0.5222 0.3665 0.0000
vt 0.6636 0.3812 0.0000
vt 0.5222 0.3812 0.0000
vt 0.6636 0.3960 0.0000
vt 0.5222 0.3960 0.0000
vt 0.5082 0.4166 0.0000
vt 0.5084 0.4398 0.0000
vt 0.1604 0.4459 0.0000
vt 0.1565 0.4180 0.0000
vt 0.5089 0.4629 0.0000
vt 0.1591 0.4737 0.0000
vt 0.5096 0.4860 0.0000
vt 0.1654 0.5000 0.0000
vt 0.5106 0.5090 0.0000
vt 0.1715 0.5250 0.0000
vt 0.5100 0.3215 0.0000
vt 0.5092 0.3473 0.0000
vt 0.1644 0.3357 0.0000
vt 0.1703 0.3108 0.0000
vt 0.5086 0.3704 0.0000
vt 0.1584 0.3621 0.0000
vt 0.5083 0.3935 0.0000
vt 0.1600 0.3900 0.0000
vt 0.0106 0.4924 0.0000
vt 0.0075 0.4572 0.0000
vt 0.1394 0.4470 0.0000
vt 0.1423 0.4756 0.0000
vt 0.0153 0.5274 0.0000
vt 0.1462 0.5051 0.0000
vt 0.0205 0.5590 0.0000
vt 0.1573 0.5368 0.0000
vt 0.0104 0.3142 0.0000
vt 0.0150 0.2779 0.0000
vt 0.1560 0.2992 0.0000
vt 0.1452 0.3307 0.0000
vt 0.0073 0.3503 0.0000
vt 0.1416 0.3604 0.0000
vt 0.0058 0.3861 0.0000
vt 0.1389 0.3892 0.0000
vt 0.0059 0.4218 0.0000
vt 0.1393 0.4181 0.0000
vt 0.6878 0.4627 0.0000
vt 0.6649 0.4627 0.0000
vt 0.6488 0.4466 0.0000
vt 0.7039 0.4237 0.0000
vt 0.6649 0.4076 0.0000
vt 0.6488 0.4237 0.0000
vt 0.7039 0.4466 0.0000
vt 0.6878 0.4076 0.0000
vt 0.0061 0.2582 0.0000
vt 0.1557 0.2575 0.0000
vt 0.1557 0.2656 0.0000
vt 0.0061 0.2663 0.0000
vt 0.0061 0.2501 0.0000
vt 0.1557 0.2494 0.0000
vt 0.0060 0.2420 0.0000
vt 0.1556 0.2413 0.0000
vt 0.0060 0.2339 0.0000
vt 0.1556 0.2332 0.0000
vt 0.0059 0.2258 0.0000
vt 0.1555 0.2251 0.0000
vt 0.0059 0.2177 0.0000
vt 0.1555 0.2170 0.0000
vt 0.0059 0.2096 0.0000
vt 0.1554 0.2089 0.0000
vt 0.0058 0.2015 0.0000
vt 0.1554 0.2008 0.0000
vt 0.6309 0.5983 0.0000
vt 0.4894 0.5983 0.0000
vt 0.4894 0.5835 0.0000
vt 0.6309 0.5835 0.0000
vt 0.6309 0.6130 0.0000
vt 0.4894 0.6130 0.0000
vt 0.6309 0.6278 0.0000
vt 0.4894 0.6278 0.0000
vt 0.6309 0.6425 0.0000
vt 0.4894 0.6425 0.0000
vt 0.6309 0.6573 0.0000
vt 0.4894 0.6573 0.0000
vt 0.6309 0.6720 0.0000
vt 0.4894 0.6720 0.0000
vt 0.6309 0.6868 0.0000
vt 0.4894 0.6868 0.0000
vt 0.6309 0.7015 0.0000
vt 0.4894 0.7015 0.0000
vt 0.9919 0.8519 0.0000
vt 0.9920 0.8750 0.0000
vt 0.6441 0.8811 0.0000
vt 0.6401 0.8532 0.0000
vt 0.9925 0.8981 0.0000
vt 0.6427 0.9089 0.0000
vt 0.9932 0.9212 0.0000
vt 0.6490 0.9352 0.0000
vt 0.9942 0.9442 0.0000
vt 0.6552 0.9602 0.0000
vt 0.9937 0.7567 0.0000
vt 0.9929 0.7825 0.0000
vt 0.6480 0.7709 0.0000
vt 0.6539 0.7461 0.0000
vt 0.9923 0.8056 0.0000
vt 0.6420 0.7973 0.0000
vt 0.9919 0.8287 0.0000
vt 0.6437 0.8252 0.0000
vt 0.4943 0.9276 0.0000
vt 0.4911 0.8924 0.0000
vt 0.6230 0.8822 0.0000
vt 0.6259 0.9108 0.0000
vt 0.4990 0.9626 0.0000
vt 0.6298 0.9403 0.0000
vt 0.5041 0.9942 0.0000
vt 0.6410 0.9720 0.0000
vt 0.4940 0.7494 0.0000
vt 0.4986 0.7131 0.0000
vt 0.6397 0.7344 0.0000
vt 0.6289 0.7659 0.0000
vt 0.4909 0.7855 0.0000
vt 0.6252 0.7956 0.0000
vt 0.4894 0.8213 0.0000
vt 0.6226 0.8244 0.0000
vt 0.4895 0.8570 0.0000
vt 0.6229 0.8533 0.0000
vt 0.6488 0.4905 0.0000
# 267 texture coords

o Board_BasketBall_Board_group
g Board_BasketBall_Board_group
usemtl Material__25
s off
f 1/1/1 2/2/1 3/3/1 4/4/1 
f 5/5/2 1/6/2 4/7/2 6/8/2 
f 7/9/3 5/5/3 6/8/3 8/10/3 
f 2/11/4 7/9/4 8/10/4 3/12/4 
f 5/5/5 7/9/5 2/2/5 1/1/5 
f 4/13/6 3/14/6 8/10/6 6/8/6 
f 9/15/6 10/16/6 11/17/6 12/18/6 
f 13/19/7 14/20/4 10/21/4 9/22/7 
f 15/23/5 16/24/5 14/20/5 13/19/5 
f 12/25/8 11/26/2 16/27/2 15/28/8 
f 17/29/6 9/15/6 12/18/6 18/30/9 
f 19/31/10 13/19/7 9/22/7 17/32/10 
f 20/33/5 15/23/5 13/19/5 19/31/5 
f 18/34/11 12/25/8 15/28/8 20/35/11 
f 21/36/12 17/29/6 18/30/9 
f 22/37/3 19/31/10 17/32/10 21/38/3 
f 23/39/5 20/33/5 19/31/5 22/37/5 
f 24/40/5 25/41/5 26/42/5 27/43/5 
f 28/44/13 29/45/6 21/36/12 
f 30/46/14 22/37/3 21/38/3 29/47/14 
f 31/48/5 23/39/5 22/37/5 30/46/5 
f 32/49/5 27/43/5 26/42/5 
f 33/50/6 29/45/6 28/44/13 34/51/6 
f 35/52/15 30/46/14 29/47/14 33/53/15 
f 36/54/5 31/48/5 30/46/5 35/52/5 
f 34/55/16 28/56/17 31/57/17 36/58/16 
f 37/59/6 33/50/6 34/51/6 38/60/6 
f 39/61/18 35/52/15 33/53/15 37/62/18 
f 40/63/5 36/54/5 35/52/5 39/61/5 
f 38/64/4 34/55/16 36/58/16 40/65/4 
f 41/66/6 37/59/6 38/60/6 42/67/6 
f 43/68/8 39/61/18 37/62/18 41/69/8 
f 44/70/5 40/63/5 39/61/5 43/68/5 
f 42/71/7 38/64/4 40/65/4 44/72/7 
f 45/73/6 41/66/6 42/67/6 46/74/6 
f 47/75/19 43/68/8 41/69/8 45/76/19 
f 48/77/5 44/70/5 43/68/5 47/75/5 
f 46/78/10 42/71/7 44/72/7 48/79/10 
f 49/80/6 45/73/6 46/74/6 50/81/6 
f 51/82/1 47/75/19 45/76/19 49/83/1 
f 52/84/5 48/77/5 47/75/5 51/82/5 
f 50/85/3 46/78/10 48/79/10 52/86/3 
f 53/87/6 49/80/6 50/81/6 54/88/6 
f 55/89/20 51/82/1 49/83/1 53/90/20 
f 56/91/5 52/84/5 51/82/5 55/89/5 
f 54/92/14 50/85/3 52/86/3 56/93/14 
f 57/94/6 53/87/6 54/88/6 58/95/6 
f 59/96/16 55/89/20 53/90/20 57/97/16 
f 60/98/5 56/91/5 55/89/5 59/96/5 
f 58/99/15 54/92/14 56/93/14 60/100/15 
f 10/16/6 57/94/6 58/95/6 11/17/6 
f 14/20/4 59/96/16 57/97/16 10/21/4 
f 16/24/5 60/98/5 59/96/5 14/20/5 
f 11/26/2 58/99/15 60/100/15 16/27/2 
f 23/39/5 61/101/5 62/102/5 20/33/5 
f 62/103/2 63/104/2 18/34/2 20/35/2 
f 64/105/5 61/101/5 23/39/5 31/48/5 
f 65/106/4 64/107/4 31/57/4 28/56/4 
f 18/30/9 66/108/21 67/109/22 21/36/12 
f 63/104/2 66/110/2 18/34/2 
f 24/40/5 68/111/5 25/41/5 
f 67/109/22 69/112/23 28/44/13 21/36/12 
f 27/43/5 70/113/5 24/40/5 
f 28/56/4 69/114/4 65/106/4 
f 71/115/24 72/116/24 73/117/24 74/118/24 
f 75/119/25 76/120/25 72/116/25 71/115/25 
f 77/121/26 78/122/26 76/120/26 75/119/26 
f 79/123/27 80/124/27 78/122/27 77/121/27 
f 81/125/28 82/126/28 80/124/28 79/123/28 
f 83/127/29 84/128/29 82/126/29 81/125/29 
f 85/129/30 86/130/30 84/128/30 83/127/30 
f 74/131/31 73/132/31 86/130/31 85/129/31 
f 87/133/32 88/134/32 89/135/32 90/136/32 
f 91/137/33 92/138/33 88/134/33 87/133/33 
f 93/139/34 94/140/34 92/138/34 91/137/34 
f 95/141/35 96/142/35 94/140/35 93/139/35 
f 97/143/36 98/144/36 96/142/36 95/141/36 
f 99/145/37 100/146/37 98/144/37 97/143/37 
f 101/147/38 102/148/38 100/146/38 99/145/38 
f 90/149/39 89/150/39 102/148/39 101/147/39 
f 103/151/40 104/152/40 105/153/40 106/154/40 
f 104/152/41 107/155/41 108/156/41 105/153/41 
f 107/155/42 109/157/42 110/158/42 108/156/42 
f 109/157/43 111/159/43 112/160/43 110/158/43 
f 111/161/44 113/162/44 114/163/44 112/164/44 
f 113/162/45 115/165/45 116/166/45 114/163/45 
f 115/165/46 117/167/46 118/168/46 116/166/46 
f 117/167/47 103/151/47 106/154/47 118/168/47 
f 119/169/41 120/170/41 121/171/41 122/172/41 
f 123/173/42 119/169/42 122/172/42 124/174/42 
f 125/175/43 123/173/43 124/174/43 126/176/43 
f 127/177/44 125/178/44 126/179/44 128/180/44 
f 129/181/45 127/177/45 128/180/45 130/182/45 
f 131/183/46 129/181/46 130/182/46 132/184/46 
f 133/185/47 131/183/47 132/184/47 134/186/47 
f 120/170/40 133/185/40 134/186/40 121/171/40 
f 122/172/5 121/171/5 105/153/5 108/156/5 
f 130/182/5 128/180/5 114/163/5 116/166/5 
f 124/174/5 122/172/5 108/156/5 110/158/5 
f 132/184/5 130/182/5 116/166/5 118/168/5 
f 126/176/5 124/174/5 110/158/5 112/160/5 
f 134/186/5 132/184/5 118/168/5 106/154/5 
f 128/180/5 126/179/5 112/164/5 114/163/5 
f 121/171/5 134/186/5 106/154/5 105/153/5 
f 107/187/5 104/188/5 103/189/5 
f 111/190/5 107/187/5 103/189/5 115/191/5 
f 117/192/5 115/191/5 103/189/5 
f 111/190/5 109/193/5 107/187/5 
f 115/191/5 113/194/5 111/190/5 
f 135/195/24 136/196/24 137/197/24 138/198/24 
f 139/199/25 140/200/25 136/196/25 135/195/25 
f 141/201/26 142/202/26 140/200/26 139/199/26 
f 143/203/27 144/204/27 142/202/27 141/201/27 
f 145/205/28 146/206/28 144/204/28 143/203/28 
f 147/207/29 148/208/29 146/206/29 145/205/29 
f 149/209/30 150/210/30 148/208/30 147/207/30 
f 138/211/31 137/212/31 150/210/31 149/209/31 
f 151/213/32 152/214/32 153/215/32 154/216/32 
f 155/217/33 156/218/33 152/214/33 151/213/33 
f 157/219/34 158/220/34 156/218/34 155/217/34 
f 159/221/35 160/222/35 158/220/35 157/219/35 
f 161/223/36 162/224/36 160/222/36 159/221/36 
f 163/225/37 164/226/37 162/224/37 161/223/37 
f 165/227/38 166/228/38 164/226/38 163/225/38 
f 154/229/39 153/230/39 166/228/39 165/227/39 
f 26/231/40 167/232/40 168/233/40 169/234/40 
f 167/232/41 25/235/41 170/236/41 168/233/41 
f 25/235/42 68/237/42 171/238/42 170/236/42 
f 68/237/43 24/239/43 172/240/43 171/238/43 
f 24/241/44 70/242/44 173/243/44 172/244/44 
f 70/242/45 27/245/45 174/246/45 173/243/45 
f 27/245/46 32/247/46 175/248/46 174/246/46 
f 32/247/47 26/231/47 169/234/47 175/248/47 
f 176/249/41 177/250/41 178/251/41 179/252/41 
f 180/253/42 176/249/42 179/252/42 181/254/42 
f 182/255/43 180/253/43 181/254/43 183/256/43 
f 184/257/44 182/258/44 183/259/44 185/260/44 
f 186/261/45 184/257/45 185/260/45 187/262/45 
f 188/263/46 186/261/46 187/262/46 189/264/46 
f 190/265/47 188/263/47 189/264/47 191/266/47 
f 177/250/40 190/265/40 191/266/40 178/251/40 
f 179/252/5 178/251/5 168/233/5 170/236/5 
f 187/262/5 185/260/5 173/243/5 174/246/5 
f 181/254/5 179/252/5 170/236/5 171/238/5 
f 189/264/5 187/262/5 174/246/5 175/248/5 
f 183/256/5 181/254/5 171/238/5 172/240/5 
f 191/266/5 189/264/5 175/248/5 169/234/5 
f 185/260/5 183/259/5 172/244/5 173/243/5 
f 178/251/5 191/266/5 169/234/5 168/233/5 
f 25/41/5 167/267/5 26/42/5 
# 138 polygons - 12 triangles

