# 3ds Max Wavefront OBJ Exporter v0.97b - (c)2007 guruware
# File Created: 17.11.2021 15:00:41

mtllib BrazoIzquierdoLego.mtl

#
# object BrazoIzquierdo
#

v  2.9860 17.9225 -0.1554
v  2.7289 17.6444 0.0709
v  3.0223 17.6939 0.5979
v  3.4901 17.8054 0.0754
v  3.2038 17.7745 -0.7747
v  2.8408 17.6939 -0.7770
v  3.1226 17.1140 1.1368
v  3.4876 16.2295 1.1874
v  3.5758 17.3297 0.8277
v  4.1702 17.3454 0.2348
v  4.6123 16.5133 -0.1965
v  4.0653 17.4789 -0.5506
v  3.6494 17.2728 -1.2392
v  3.4876 16.3111 -1.5956
v  3.1004 17.3133 -1.4104
v  2.8085 17.1140 -1.2443
v  2.7929 16.1411 -1.0681
v  2.6225 17.1827 -0.5591
v  2.6139 17.0284 0.2252
v  2.7929 16.0910 0.6520
v  2.8050 17.1827 0.8237
v  4.3144 16.4220 0.6616
v  4.3144 16.4727 -1.0585
v  3.1035 16.2261 -1.5979
v  2.6744 16.0899 -0.2089
v  3.1035 16.1445 1.1852
v  5.1502 13.4498 0.1881
v  4.8745 13.8940 0.7860
v  4.3315 14.0562 0.8845
v  3.7286 13.9526 1.1497
v  3.2960 13.5438 0.7759
v  3.1992 13.0168 0.1751
v  3.4750 12.5720 -0.4234
v  4.0180 12.3800 -0.7911
v  4.6209 12.5135 -0.7871
v  5.0534 12.9222 -0.4133
v  5.4502 11.2410 2.4120
v  5.2304 11.5535 2.8157
v  4.7827 11.6773 3.0629
v  4.2781 11.5653 3.0595
v  3.9091 11.2601 2.8073
v  3.8168 10.8790 2.4019
v  4.0366 10.5665 1.9982
v  4.4843 10.4432 1.7505
v  4.9889 10.5547 1.7539
v  5.3579 10.8598 2.0067
v  4.6335 11.0597 2.4070
v  6.1469 9.0936 2.6913
v  5.7522 9.8863 2.1542
v  6.1948 10.0721 4.0899
v  5.7996 10.8643 3.5528
v  5.0474 10.2157 1.9616
v  5.0943 11.1853 3.3472
v  4.2609 10.1127 2.0641
v  3.6721 9.6183 2.4295
v  4.3083 11.0845 3.4542
v  3.7195 10.5969 3.8281
v  3.6691 8.7867 3.0111
v  3.7165 9.7653 4.4097
v  4.3804 8.6398 4.2036
v  4.4026 9.0930 4.8505
v  5.5621 8.7884 4.0499
v  5.5843 9.2411 4.6968
v  5.5596 9.4854 2.4419
v  5.7285 9.0057 2.7701
v  5.7764 9.9843 4.1687
v  5.6075 10.4640 3.8405
v  5.0343 9.7889 2.2527
v  5.0822 10.7664 3.6513
v  4.4732 9.7124 2.3298
v  4.5206 10.6909 3.7284
v  4.0028 9.2844 2.6491
v  4.0502 10.2624 4.0477
v  4.0089 8.7974 2.9892
v  4.0568 9.7760 4.3877
v  4.6391 11.1430 2.9267
v  4.2978 10.9505 2.8191
v  4.2962 10.6543 2.5128
v  4.6355 10.5507 2.3135
v  4.9773 10.7433 2.4216
v  4.9788 11.0400 2.7273
v  4.3482 12.5551 1.4836
v  4.0054 12.3541 1.3851
v  4.0069 12.0416 1.0945
v  4.3512 11.9301 0.9037
v  4.6940 12.1312 1.0028
v  4.6925 12.4442 1.2922
v  4.3497 12.2432 1.1936
# 88 vertices

vn -0.2598 0.9656 0.0127
vn -0.8288 0.5390 0.1506
vn -0.2512 0.8080 0.5329
vn 0.3144 0.9323 0.1788
vn 0.1013 0.9128 -0.3956
vn -0.6083 0.7029 -0.3687
vn -0.1542 0.3523 0.9231
vn 0.2248 0.0723 0.9717
vn 0.3951 0.5765 0.7152
vn 0.6987 0.6344 0.3307
vn 0.9501 0.3114 -0.0159
vn 0.6369 0.7214 -0.2719
vn 0.4157 0.5447 -0.7284
vn 0.2372 0.0528 -0.9700
vn -0.1672 0.5159 -0.8402
vn -0.7924 0.1978 -0.5771
vn -0.9101 -0.1664 -0.3794
vn -0.9778 0.1437 -0.1526
vn -0.9845 0.0614 0.1646
vn -0.9131 -0.1606 0.3747
vn -0.7863 0.2624 0.5593
vn 0.7061 0.2686 0.6552
vn 0.7272 0.2238 -0.6489
vn -0.4331 -0.0952 -0.8963
vn -0.9877 -0.1557 -0.0103
vn -0.4677 -0.1050 0.8777
vn 0.9842 0.1713 -0.0443
vn 0.7310 0.3880 0.5614
vn 0.2371 0.2994 0.9242
vn -0.2537 0.2788 0.9262
vn -0.8811 -0.0143 0.4727
vn -0.9690 -0.2458 -0.0247
vn -0.7429 -0.4685 -0.4780
vn -0.2122 -0.5631 -0.7987
vn 0.4226 -0.4165 -0.8050
vn 0.8549 -0.1145 -0.5060
vn 0.8336 -0.3329 0.4409
vn 0.6292 -0.0608 0.7749
vn 0.2420 0.0314 0.9698
vn -0.2226 -0.0798 0.9716
vn -0.5508 -0.3227 0.7697
vn -0.6274 -0.6350 0.4507
vn -0.4189 -0.8962 0.1462
vn -0.0213 -0.9992 -0.0331
vn 0.4157 -0.9086 -0.0411
vn 0.7451 -0.6540 0.1312
vn 0.1429 -0.7388 0.6586
vn 0.7313 -0.5164 -0.4455
vn 0.5266 0.0666 -0.8475
vn 0.8070 0.2871 0.5160
vn 0.5653 0.8000 0.2009
vn 0.1515 0.1764 -0.9726
vn 0.2157 0.9587 0.1855
vn -0.3985 0.1088 -0.9107
vn -0.7322 -0.0912 -0.6749
vn -0.3752 0.8818 0.2856
vn -0.6929 0.6284 0.3536
vn -0.6585 -0.6952 -0.2883
vn -0.6998 0.1400 0.7004
vn 0.5470 -0.7832 0.2958
vn 0.4923 -0.2695 0.8276
vn -0.3937 -0.8457 0.3602
vn -0.3174 -0.3187 0.8931
vn -0.5017 -0.7541 -0.4239
vn -0.5199 -0.7761 -0.3570
vn -0.6095 0.4326 0.6643
vn -0.4522 0.1569 0.8780
vn -0.1363 -0.9396 -0.3141
vn -0.0859 -0.0212 0.9961
vn 0.2630 -0.9040 -0.3370
vn 0.3119 -0.0010 0.9501
vn 0.5253 -0.6525 -0.5461
vn 0.5757 0.2693 0.7721
vn 0.5901 -0.6512 -0.4773
vn 0.6595 0.5420 0.5208
vn 0.1020 0.8819 0.4603
vn -0.9252 0.3366 0.1754
vn -0.9072 0.0721 -0.4145
vn -0.1330 0.1163 -0.9843
vn 0.8287 0.2045 -0.5210
vn 0.8281 0.5605 -0.0011
vn -0.1013 0.9891 0.1067
vn -0.7742 0.6283 -0.0765
vn -0.7718 0.0420 -0.6345
vn -0.0983 -0.1555 -0.9829
vn 0.5760 0.1969 -0.7934
vn 0.5749 0.7836 -0.2357
vn -0.1656 0.6704 -0.7232
# 88 vertex normals

vt 0.6310 0.6237 0.0000
vt 0.6392 0.6313 0.0000
vt 0.6563 0.6283 0.0000
vt 0.6389 0.6265 0.0000
vt 0.6111 0.6300 0.0000
vt 0.6113 0.6324 0.0000
vt 0.6756 0.6440 0.0000
vt 0.6797 0.6702 0.0000
vt 0.6648 0.6385 0.0000
vt 0.6454 0.6398 0.0000
vt 0.6336 0.6659 0.0000
vt 0.6193 0.6381 0.0000
vt 0.5974 0.6463 0.0000
vt 0.5885 0.6760 0.0000
vt 0.5916 0.6456 0.0000
vt 0.5977 0.6510 0.0000
vt 0.6062 0.6795 0.0000
vt 0.6199 0.6470 0.0000
vt 0.6460 0.6493 0.0000
vt 0.6626 0.6759 0.0000
vt 0.6651 0.6429 0.0000
vt 0.6620 0.6660 0.0000
vt 0.6056 0.6696 0.0000
vt 0.5886 0.6786 0.0000
vt 0.6344 0.6785 0.0000
vt 0.6799 0.6728 0.0000
vt 0.6550 0.7561 0.0000
vt 0.6733 0.7410 0.0000
vt 0.6760 0.7359 0.0000
vt 0.6850 0.7382 0.0000
vt 0.6739 0.7515 0.0000
vt 0.6558 0.7690 0.0000
vt 0.6375 0.7840 0.0000
vt 0.6260 0.7908 0.0000
vt 0.6257 0.7868 0.0000
vt 0.6368 0.7736 0.0000
vt 0.7340 0.8153 0.0000
vt 0.7463 0.8049 0.0000
vt 0.7541 0.8004 0.0000
vt 0.7543 0.8038 0.0000
vt 0.7469 0.8136 0.0000
vt 0.7347 0.8262 0.0000
vt 0.7224 0.8367 0.0000
vt 0.7147 0.8411 0.0000
vt 0.7145 0.8377 0.0000
vt 0.7219 0.8279 0.0000
vt 0.7344 0.8208 0.0000
vt 0.6689 0.8565 0.0000
vt 0.7219 0.8573 0.0000
vt 0.6690 0.9675 0.0000
vt 0.7220 0.9684 0.0000
vt 0.7430 0.8594 0.0000
vt 0.7431 0.9694 0.0000
vt 0.7350 0.8610 0.0000
vt 0.7010 0.8621 0.0000
vt 0.7351 0.9713 0.0000
vt 0.7011 0.9731 0.0000
vt 0.6449 0.8621 0.0000
vt 0.6449 0.9732 0.0000
vt 0.6004 0.9203 0.0000
vt 0.6004 0.9716 0.0000
vt 0.6120 0.9176 0.0000
vt 0.6120 0.9690 0.0000
vt 0.6946 0.8578 0.0000
vt 0.6624 0.8575 0.0000
vt 0.6625 0.9685 0.0000
vt 0.6947 0.9688 0.0000
vt 0.7144 0.8590 0.0000
vt 0.7145 0.9700 0.0000
vt 0.7085 0.8603 0.0000
vt 0.7086 0.9713 0.0000
vt 0.6789 0.8613 0.0000
vt 0.6790 0.9724 0.0000
vt 0.6461 0.8614 0.0000
vt 0.6461 0.9724 0.0000
vt 0.7545 0.9454 0.0000
vt 0.7492 0.9325 0.0000
vt 0.7454 0.9051 0.0000
vt 0.7470 0.8906 0.0000
vt 0.7524 0.9035 0.0000
vt 0.7561 0.9309 0.0000
vt 0.8643 0.9210 0.0000
vt 0.8583 0.9082 0.0000
vt 0.8533 0.8811 0.0000
vt 0.8543 0.8668 0.0000
vt 0.8604 0.8796 0.0000
vt 0.8653 0.9067 0.0000
vt 0.8593 0.8939 0.0000
# 88 texture coords

o BrazoIzquierdo
g BrazoIzquierdo
usemtl Texture
s 1
f 1/1/1 2/2/2 3/3/3 
f 1/1/1 3/3/3 4/4/4 
f 1/1/1 4/4/4 5/5/5 
f 1/1/1 5/5/5 6/6/6 
f 1/1/1 6/6/6 2/2/2 
f 7/7/7 8/8/8 9/9/9 
f 10/10/10 11/11/11 12/12/12 
f 13/13/13 14/14/14 15/15/15 
f 16/16/16 17/17/17 18/18/18 
f 19/19/19 20/20/20 21/21/21 
f 19/19/19 21/21/21 2/2/2 
f 7/7/7 3/3/3 21/21/21 
f 2/2/2 21/21/21 3/3/3 
f 7/7/7 9/9/9 3/3/3 
f 10/10/10 4/4/4 9/9/9 
f 3/3/3 9/9/9 4/4/4 
f 10/10/10 12/12/12 4/4/4 
f 13/13/13 5/5/5 12/12/12 
f 4/4/4 12/12/12 5/5/5 
f 13/13/13 15/15/15 5/5/5 
f 16/16/16 6/6/6 15/15/15 
f 5/5/5 15/15/15 6/6/6 
f 16/16/16 18/18/18 6/6/6 
f 19/19/19 2/2/2 18/18/18 
f 6/6/6 18/18/18 2/2/2 
f 10/10/10 9/9/9 22/22/22 
f 8/8/8 22/22/22 9/9/9 
f 13/13/13 12/12/12 23/23/23 
f 11/11/11 23/23/23 12/12/12 
f 16/16/16 15/15/15 24/24/24 
f 14/14/14 24/24/24 15/15/15 
f 19/19/19 18/18/18 25/25/25 
f 17/17/17 25/25/25 18/18/18 
f 7/7/7 21/21/21 26/26/26 
f 20/20/20 26/26/26 21/21/21 
f 10/10/10 22/22/22 11/11/11 
f 13/13/13 23/23/23 14/14/14 
f 16/16/16 24/24/24 17/17/17 
f 19/19/19 25/25/25 20/20/20 
f 7/7/7 26/26/26 8/8/8 
f 11/11/11 22/22/22 27/27/27 
f 22/22/22 28/28/28 27/27/27 
f 22/22/22 8/8/8 28/28/28 
f 8/8/8 29/29/29 28/28/28 
f 8/8/8 26/26/26 29/29/29 
f 26/26/26 30/30/30 29/29/29 
f 26/26/26 20/20/20 30/30/30 
f 20/20/20 31/31/31 30/30/30 
f 20/20/20 25/25/25 31/31/31 
f 25/25/25 32/32/32 31/31/31 
f 25/25/25 17/17/17 32/32/32 
f 17/17/17 33/33/33 32/32/32 
f 17/17/17 24/24/24 33/33/33 
f 24/24/24 34/34/34 33/33/33 
f 24/24/24 14/14/14 34/34/34 
f 14/14/14 35/35/35 34/34/34 
f 14/14/14 23/23/23 35/35/35 
f 23/23/23 36/36/36 35/35/35 
f 23/23/23 11/11/11 36/36/36 
f 11/11/11 27/27/27 36/36/36 
f 27/27/27 28/28/28 37/37/37 
f 28/28/28 38/38/38 37/37/37 
f 28/28/28 29/29/29 38/38/38 
f 29/29/29 39/39/39 38/38/38 
f 29/29/29 30/30/30 39/39/39 
f 30/30/30 40/40/40 39/39/39 
f 30/30/30 31/31/31 40/40/40 
f 31/31/31 41/41/41 40/40/40 
f 31/31/31 32/32/32 41/41/41 
f 32/32/32 42/42/42 41/41/41 
f 32/32/32 33/33/33 42/42/42 
f 33/33/33 43/43/43 42/42/42 
f 33/33/33 34/34/34 43/43/43 
f 34/34/34 44/44/44 43/43/43 
f 34/34/34 35/35/35 44/44/44 
f 35/35/35 45/45/45 44/44/44 
f 35/35/35 36/36/36 45/45/45 
f 36/36/36 46/46/46 45/45/45 
f 36/36/36 27/27/27 46/46/46 
f 27/27/27 37/37/37 46/46/46 
f 47/47/47 37/37/37 38/38/38 
f 47/47/47 38/38/38 39/39/39 
f 47/47/47 39/39/39 40/40/40 
f 47/47/47 40/40/40 41/41/41 
f 47/47/47 41/41/41 42/42/42 
f 47/47/47 42/42/42 43/43/43 
f 47/47/47 43/43/43 44/44/44 
f 47/47/47 44/44/44 45/45/45 
f 47/47/47 45/45/45 46/46/46 
f 47/47/47 46/46/46 37/37/37 
f 48/48/48 49/49/49 50/50/50 
f 49/49/49 51/51/51 50/50/50 
f 49/49/49 52/52/52 51/51/51 
f 52/52/52 53/53/53 51/51/51 
f 54/54/54 55/55/55 56/56/56 
f 55/55/55 57/57/57 56/56/56 
f 55/55/55 58/58/58 57/57/57 
f 58/58/58 59/59/59 57/57/57 
f 58/58/58 60/60/60 59/59/59 
f 60/60/60 61/61/61 59/59/59 
f 62/62/62 48/48/48 63/63/63 
f 48/48/48 50/50/50 63/63/63 
f 64/64/64 65/65/65 66/66/66 
f 64/64/64 66/66/66 67/67/67 
f 68/68/68 64/64/64 67/67/67 
f 68/68/68 67/67/67 69/69/69 
f 70/70/70 68/68/68 69/69/69 
f 70/70/70 69/69/69 71/71/71 
f 72/72/72 70/70/70 71/71/71 
f 72/72/72 71/71/71 73/73/73 
f 74/74/74 72/72/72 73/73/73 
f 74/74/74 73/73/73 75/75/75 
f 60/60/60 74/74/74 75/75/75 
f 60/60/60 75/75/75 61/61/61 
f 65/65/65 62/62/62 63/63/63 
f 65/65/65 63/63/63 66/66/66 
f 49/49/49 48/48/48 65/65/65 
f 49/49/49 65/65/65 64/64/64 
f 50/50/50 51/51/51 66/66/66 
f 51/51/51 67/67/67 66/66/66 
f 52/52/52 49/49/49 64/64/64 
f 52/52/52 64/64/64 68/68/68 
f 51/51/51 53/53/53 67/67/67 
f 53/53/53 69/69/69 67/67/67 
f 54/54/54 52/52/52 68/68/68 
f 54/54/54 68/68/68 70/70/70 
f 53/53/53 56/56/56 69/69/69 
f 56/56/56 71/71/71 69/69/69 
f 55/55/55 54/54/54 70/70/70 
f 55/55/55 70/70/70 72/72/72 
f 56/56/56 57/57/57 71/71/71 
f 57/57/57 73/73/73 71/71/71 
f 58/58/58 55/55/55 72/72/72 
f 58/58/58 72/72/72 74/74/74 
f 57/57/57 59/59/59 73/73/73 
f 59/59/59 75/75/75 73/73/73 
f 60/60/60 58/58/58 74/74/74 
f 59/59/59 61/61/61 75/75/75 
f 48/48/48 62/62/62 65/65/65 
f 50/50/50 66/66/66 63/63/63 
f 76/76/76 77/77/77 56/56/56 
f 77/77/77 54/54/54 56/56/56 
f 77/77/77 78/78/78 54/54/54 
f 78/78/78 79/79/79 54/54/54 
f 79/79/79 52/52/52 54/54/54 
f 79/79/79 80/80/80 52/52/52 
f 80/80/80 53/53/53 52/52/52 
f 80/80/80 81/81/81 53/53/53 
f 81/81/81 56/56/56 53/53/53 
f 81/81/81 76/76/76 56/56/56 
f 82/82/82 83/83/83 76/76/76 
f 83/83/83 77/77/77 76/76/76 
f 83/83/83 84/84/84 77/77/77 
f 84/84/84 78/78/78 77/77/77 
f 84/84/84 85/85/85 78/78/78 
f 85/85/85 79/79/79 78/78/78 
f 85/85/85 86/86/86 79/79/79 
f 86/86/86 80/80/80 79/79/79 
f 86/86/86 87/87/87 80/80/80 
f 87/87/87 81/81/81 80/80/80 
f 87/87/87 82/82/82 81/81/81 
f 82/82/82 76/76/76 81/81/81 
f 88/88/88 83/83/83 82/82/82 
f 88/88/88 84/84/84 83/83/83 
f 88/88/88 85/85/85 84/84/84 
f 88/88/88 86/86/86 85/85/85 
f 88/88/88 87/87/87 86/86/86 
f 88/88/88 82/82/82 87/87/87 
# 0 polygons - 168 triangles

