# 3ds Max Wavefront OBJ Exporter v0.97b - (c)2007 guruware
# File Created: 17.11.2021 15:00:26

mtllib BrazoDerechoLego.mtl

#
# object BrazoDerecho
#

v  -3.0903 17.6928 0.5889
v  -2.7964 17.6404 0.0619
v  -3.0535 17.9175 -0.1655
v  -3.5582 17.8015 0.0659
v  -3.2718 17.7660 -0.7843
v  -2.9089 17.6855 -0.7860
v  -3.6434 17.3302 0.8209
v  -3.5552 16.2317 1.1869
v  -3.1902 17.1163 1.1311
v  -4.1334 17.4715 -0.5585
v  -4.6804 16.5082 -0.1988
v  -4.2383 17.3426 0.2275
v  -3.1685 17.3009 -1.4177
v  -3.5552 16.2976 -1.5968
v  -3.7170 17.2615 -1.2460
v  -2.6901 17.1748 -0.5659
v  -2.8605 16.1310 -1.0686
v  -2.8761 17.1028 -1.2499
v  -2.8731 17.1827 0.8170
v  -2.8605 16.0904 0.6514
v  -2.6820 17.0251 0.2201
v  -4.3819 16.4220 0.6593
v  -4.3819 16.4626 -1.0608
v  -3.1710 16.2126 -1.5985
v  -2.7420 16.0842 -0.2089
v  -3.1710 16.1467 1.1846
v  -5.2178 13.4464 0.2027
v  -4.9420 13.8946 0.7984
v  -4.3991 14.0573 0.8958
v  -3.7961 13.9548 1.1615
v  -3.3636 13.5444 0.7905
v  -3.2668 13.0140 0.1926
v  -3.5426 12.5653 -0.4037
v  -4.0855 12.3716 -0.7697
v  -4.6885 12.5050 -0.7669
v  -5.1210 12.9155 -0.3953
v  -5.5178 11.2506 2.4396
v  -5.2980 11.5653 2.8416
v  -4.8503 11.6903 3.0877
v  -4.3456 11.5783 3.0849
v  -3.9766 11.2720 2.8343
v  -3.8844 10.8885 2.4312
v  -4.1042 10.5738 2.0297
v  -4.5518 10.4494 1.7826
v  -5.0565 10.5603 1.7854
v  -5.4255 10.8671 2.0365
v  -4.7011 11.0693 2.4357
v  -6.2200 10.0749 4.1817
v  -5.8470 9.9145 2.2251
v  -6.2261 9.1161 2.7684
v  -5.8409 10.8728 3.6383
v  -5.1477 10.2427 2.0067
v  -5.1417 11.1926 3.4069
v  -4.3532 11.0862 3.4779
v  -3.7598 9.6318 2.4053
v  -4.3593 10.1341 2.0737
v  -3.7538 10.5901 3.8185
v  -3.7402 8.7924 2.9745
v  -3.7341 9.7506 4.3877
v  -4.4102 8.6319 4.1952
v  -4.4071 9.0756 4.8494
v  -5.5929 9.2321 4.7498
v  -5.5954 8.7890 4.0955
v  -5.7996 9.9837 4.2413
v  -5.8056 9.0249 2.8281
v  -5.6463 9.5091 2.4987
v  -5.6403 10.4674 3.9120
v  -5.1265 9.8114 2.2910
v  -5.1205 10.7703 3.7042
v  -4.5634 9.7315 2.3417
v  -4.5574 10.6903 3.7549
v  -4.0845 9.2963 2.6344
v  -4.0779 10.2546 4.0477
v  -4.0810 8.8053 2.9678
v  -4.0744 9.7636 4.3810
v  -4.3653 10.9612 2.8405
v  -4.7021 11.1543 2.9655
v  -4.3759 10.6695 2.5308
v  -4.7227 10.5704 2.3456
v  -5.0590 10.7635 2.4706
v  -5.0489 11.0558 2.7803
v  -4.1173 12.3834 1.4143
v  -4.4550 12.5850 1.5315
v  -4.1304 12.0748 1.1204
v  -4.4818 11.9690 0.9436
v  -4.8195 12.1706 1.0596
v  -4.8064 12.4785 1.3535
v  -4.4681 12.2764 1.2376
# 88 vertices

vn 0.2509 0.8111 0.5284
vn 0.8288 0.5397 0.1477
vn 0.2601 0.9656 0.0072
vn -0.3143 0.9333 0.1735
vn -0.1014 0.9105 -0.4008
vn 0.6079 0.7010 -0.3729
vn -0.3951 0.5805 0.7120
vn -0.2248 0.0778 0.9713
vn 0.1545 0.3575 0.9210
vn -0.6369 0.7197 -0.2762
vn -0.9502 0.3112 -0.0177
vn -0.6987 0.6362 0.3273
vn 0.1667 0.5113 -0.8431
vn -0.2372 0.0473 -0.9703
vn -0.4157 0.5404 -0.7315
vn 0.9778 0.1431 -0.1534
vn 0.9101 -0.1685 -0.3785
vn 0.7922 0.1949 -0.5784
vn 0.7864 0.2656 0.5577
vn 0.9132 -0.1583 0.3756
vn 0.9844 0.0623 0.1645
vn -0.7059 0.2721 0.6539
vn -0.7271 0.2200 -0.6504
vn 0.4331 -0.1003 -0.8958
vn 0.9878 -0.1556 -0.0093
vn 0.4677 -0.0999 0.8782
vn -0.9842 0.1710 -0.0452
vn -0.7310 0.3911 0.5591
vn -0.2371 0.3047 0.9225
vn 0.2537 0.2841 0.9246
vn 0.8811 -0.0116 0.4728
vn 0.9690 -0.2459 -0.0233
vn 0.7429 -0.4712 -0.4754
vn 0.2122 -0.5677 -0.7955
vn -0.4226 -0.4211 -0.8026
vn -0.8549 -0.1174 -0.5053
vn -0.8336 -0.3304 0.4428
vn -0.6292 -0.0564 0.7752
vn -0.2420 0.0369 0.9696
vn 0.2226 -0.0743 0.9721
vn 0.5508 -0.3184 0.7715
vn 0.6274 -0.6324 0.4543
vn 0.4189 -0.8953 0.1513
vn 0.0213 -0.9994 -0.0275
vn -0.4157 -0.9088 -0.0359
vn -0.7451 -0.6532 0.1349
vn -0.1429 -0.7350 0.6628
vn -0.7849 0.2831 0.5512
vn -0.5590 0.0808 -0.8252
vn -0.7510 -0.5066 -0.4236
vn -0.5531 0.7996 0.2340
vn -0.1882 0.1909 -0.9634
vn -0.2031 0.9570 0.2072
vn 0.3909 0.8758 0.2832
vn 0.7047 -0.0848 -0.7044
vn 0.3630 0.1206 -0.9240
vn 0.7094 0.6202 0.3348
vn 0.6429 -0.6941 -0.3238
vn 0.7276 0.1265 0.6742
vn -0.5395 -0.7843 0.3061
vn -0.4602 -0.2794 0.8427
vn 0.3505 -0.3331 0.8753
vn 0.4035 -0.8525 0.3323
vn 0.6371 0.4204 0.6461
vn 0.5014 -0.7734 -0.3878
vn 0.4806 -0.7504 -0.4538
vn 0.4877 0.1424 0.8613
vn 0.1189 -0.9357 -0.3322
vn 0.1245 -0.0351 0.9916
vn -0.2807 -0.8976 -0.3400
vn -0.2742 -0.0134 0.9616
vn -0.5499 -0.6423 -0.5339
vn -0.5433 0.2610 0.7979
vn -0.6121 -0.6412 -0.4627
vn -0.6352 0.5377 0.5544
vn 0.9330 0.3296 0.1441
vn -0.0795 0.8755 0.4766
vn 0.8917 0.0715 -0.4468
vn 0.0949 0.1301 -0.9869
vn -0.8471 0.2157 -0.4857
vn -0.8256 0.5629 0.0396
vn 0.7738 0.6256 -0.0989
vn 0.1109 0.9870 0.1161
vn 0.7464 0.0473 -0.6638
vn 0.0589 -0.1417 -0.9882
vn -0.6051 0.2118 -0.7675
vn -0.5795 0.7895 -0.2020
vn 0.1410 0.6798 -0.7197
# 88 vertex normals

vt 0.6563 0.6283 0.0000
vt 0.6392 0.6313 0.0000
vt 0.6310 0.6237 0.0000
vt 0.6389 0.6265 0.0000
vt 0.6111 0.6300 0.0000
vt 0.6113 0.6324 0.0000
vt 0.6648 0.6385 0.0000
vt 0.6797 0.6702 0.0000
vt 0.6756 0.6440 0.0000
vt 0.6193 0.6381 0.0000
vt 0.6336 0.6659 0.0000
vt 0.6454 0.6398 0.0000
vt 0.5916 0.6456 0.0000
vt 0.5885 0.6760 0.0000
vt 0.5974 0.6463 0.0000
vt 0.6199 0.6470 0.0000
vt 0.6062 0.6795 0.0000
vt 0.5977 0.6510 0.0000
vt 0.6651 0.6429 0.0000
vt 0.6626 0.6759 0.0000
vt 0.6460 0.6493 0.0000
vt 0.6620 0.6660 0.0000
vt 0.6056 0.6696 0.0000
vt 0.5886 0.6786 0.0000
vt 0.6344 0.6785 0.0000
vt 0.6799 0.6728 0.0000
vt 0.6550 0.7561 0.0000
vt 0.6733 0.7410 0.0000
vt 0.6760 0.7359 0.0000
vt 0.6850 0.7382 0.0000
vt 0.6739 0.7515 0.0000
vt 0.6558 0.7690 0.0000
vt 0.6375 0.7840 0.0000
vt 0.6260 0.7908 0.0000
vt 0.6257 0.7868 0.0000
vt 0.6368 0.7736 0.0000
vt 0.7340 0.8153 0.0000
vt 0.7463 0.8049 0.0000
vt 0.7541 0.8004 0.0000
vt 0.7543 0.8038 0.0000
vt 0.7469 0.8136 0.0000
vt 0.7347 0.8262 0.0000
vt 0.7224 0.8367 0.0000
vt 0.7147 0.8411 0.0000
vt 0.7145 0.8377 0.0000
vt 0.7219 0.8279 0.0000
vt 0.7344 0.8208 0.0000
vt 0.6664 0.9700 0.0000
vt 0.7217 0.8600 0.0000
vt 0.6682 0.8589 0.0000
vt 0.7199 0.9711 0.0000
vt 0.7435 0.8607 0.0000
vt 0.7417 0.9708 0.0000
vt 0.7346 0.9705 0.0000
vt 0.7032 0.8590 0.0000
vt 0.7365 0.8602 0.0000
vt 0.7013 0.9700 0.0000
vt 0.6470 0.8577 0.0000
vt 0.6452 0.9688 0.0000
vt 0.6007 0.9165 0.0000
vt 0.5999 0.9679 0.0000
vt 0.6102 0.9685 0.0000
vt 0.6110 0.9171 0.0000
vt 0.6604 0.9697 0.0000
vt 0.6622 0.8587 0.0000
vt 0.6946 0.8593 0.0000
vt 0.6928 0.9704 0.0000
vt 0.7149 0.8596 0.0000
vt 0.7131 0.9707 0.0000
vt 0.7097 0.8594 0.0000
vt 0.7079 0.9704 0.0000
vt 0.6807 0.8586 0.0000
vt 0.6788 0.9696 0.0000
vt 0.6478 0.8578 0.0000
vt 0.6460 0.9689 0.0000
vt 0.7494 0.9320 0.0000
vt 0.7541 0.9459 0.0000
vt 0.7461 0.9046 0.0000
vt 0.7475 0.8910 0.0000
vt 0.7523 0.9049 0.0000
vt 0.7555 0.9324 0.0000
vt 0.8592 0.9097 0.0000
vt 0.8646 0.9234 0.0000
vt 0.8547 0.8825 0.0000
vt 0.8555 0.8690 0.0000
vt 0.8609 0.8828 0.0000
vt 0.8655 0.9100 0.0000
vt 0.8601 0.8962 0.0000
# 88 texture coords

o BrazoDerecho
g BrazoDerecho
usemtl Texture
s 1
f 1/1/1 2/2/2 3/3/3 
f 4/4/4 1/1/1 3/3/3 
f 5/5/5 4/4/4 3/3/3 
f 6/6/6 5/5/5 3/3/3 
f 2/2/2 6/6/6 3/3/3 
f 7/7/7 8/8/8 9/9/9 
f 10/10/10 11/11/11 12/12/12 
f 13/13/13 14/14/14 15/15/15 
f 16/16/16 17/17/17 18/18/18 
f 19/19/19 20/20/20 21/21/21 
f 2/2/2 19/19/19 21/21/21 
f 19/19/19 1/1/1 9/9/9 
f 1/1/1 19/19/19 2/2/2 
f 1/1/1 7/7/7 9/9/9 
f 7/7/7 4/4/4 12/12/12 
f 4/4/4 7/7/7 1/1/1 
f 4/4/4 10/10/10 12/12/12 
f 10/10/10 5/5/5 15/15/15 
f 5/5/5 10/10/10 4/4/4 
f 5/5/5 13/13/13 15/15/15 
f 13/13/13 6/6/6 18/18/18 
f 6/6/6 13/13/13 5/5/5 
f 6/6/6 16/16/16 18/18/18 
f 16/16/16 2/2/2 21/21/21 
f 2/2/2 16/16/16 6/6/6 
f 22/22/22 7/7/7 12/12/12 
f 7/7/7 22/22/22 8/8/8 
f 23/23/23 10/10/10 15/15/15 
f 10/10/10 23/23/23 11/11/11 
f 24/24/24 13/13/13 18/18/18 
f 13/13/13 24/24/24 14/14/14 
f 25/25/25 16/16/16 21/21/21 
f 16/16/16 25/25/25 17/17/17 
f 26/26/26 19/19/19 9/9/9 
f 19/19/19 26/26/26 20/20/20 
f 11/11/11 22/22/22 12/12/12 
f 14/14/14 23/23/23 15/15/15 
f 17/17/17 24/24/24 18/18/18 
f 20/20/20 25/25/25 21/21/21 
f 8/8/8 26/26/26 9/9/9 
f 27/27/27 22/22/22 11/11/11 
f 27/27/27 28/28/28 22/22/22 
f 28/28/28 8/8/8 22/22/22 
f 28/28/28 29/29/29 8/8/8 
f 29/29/29 26/26/26 8/8/8 
f 29/29/29 30/30/30 26/26/26 
f 30/30/30 20/20/20 26/26/26 
f 30/30/30 31/31/31 20/20/20 
f 31/31/31 25/25/25 20/20/20 
f 31/31/31 32/32/32 25/25/25 
f 32/32/32 17/17/17 25/25/25 
f 32/32/32 33/33/33 17/17/17 
f 33/33/33 24/24/24 17/17/17 
f 33/33/33 34/34/34 24/24/24 
f 34/34/34 14/14/14 24/24/24 
f 34/34/34 35/35/35 14/14/14 
f 35/35/35 23/23/23 14/14/14 
f 35/35/35 36/36/36 23/23/23 
f 36/36/36 11/11/11 23/23/23 
f 36/36/36 27/27/27 11/11/11 
f 37/37/37 28/28/28 27/27/27 
f 37/37/37 38/38/38 28/28/28 
f 38/38/38 29/29/29 28/28/28 
f 38/38/38 39/39/39 29/29/29 
f 39/39/39 30/30/30 29/29/29 
f 39/39/39 40/40/40 30/30/30 
f 40/40/40 31/31/31 30/30/30 
f 40/40/40 41/41/41 31/31/31 
f 41/41/41 32/32/32 31/31/31 
f 41/41/41 42/42/42 32/32/32 
f 42/42/42 33/33/33 32/32/32 
f 42/42/42 43/43/43 33/33/33 
f 43/43/43 34/34/34 33/33/33 
f 43/43/43 44/44/44 34/34/34 
f 44/44/44 35/35/35 34/34/34 
f 44/44/44 45/45/45 35/35/35 
f 45/45/45 36/36/36 35/35/35 
f 45/45/45 46/46/46 36/36/36 
f 46/46/46 27/27/27 36/36/36 
f 46/46/46 37/37/37 27/27/27 
f 38/38/38 37/37/37 47/47/47 
f 39/39/39 38/38/38 47/47/47 
f 40/40/40 39/39/39 47/47/47 
f 41/41/41 40/40/40 47/47/47 
f 42/42/42 41/41/41 47/47/47 
f 43/43/43 42/42/42 47/47/47 
f 44/44/44 43/43/43 47/47/47 
f 45/45/45 44/44/44 47/47/47 
f 46/46/46 45/45/45 47/47/47 
f 37/37/37 46/46/46 47/47/47 
f 48/48/48 49/49/49 50/50/50 
f 48/48/48 51/51/51 49/49/49 
f 51/51/51 52/52/52 49/49/49 
f 51/51/51 53/53/53 52/52/52 
f 54/54/54 55/55/55 56/56/56 
f 54/54/54 57/57/57 55/55/55 
f 57/57/57 58/58/58 55/55/55 
f 57/57/57 59/59/59 58/58/58 
f 59/59/59 60/60/60 58/58/58 
f 59/59/59 61/61/61 60/60/60 
f 62/62/62 50/50/50 63/63/63 
f 62/62/62 48/48/48 50/50/50 
f 64/64/64 65/65/65 66/66/66 
f 67/67/67 64/64/64 66/66/66 
f 67/67/67 66/66/66 68/68/68 
f 69/69/69 67/67/67 68/68/68 
f 69/69/69 68/68/68 70/70/70 
f 71/71/71 69/69/69 70/70/70 
f 71/71/71 70/70/70 72/72/72 
f 73/73/73 71/71/71 72/72/72 
f 73/73/73 72/72/72 74/74/74 
f 75/75/75 73/73/73 74/74/74 
f 75/75/75 74/74/74 60/60/60 
f 61/61/61 75/75/75 60/60/60 
f 62/62/62 63/63/63 65/65/65 
f 64/64/64 62/62/62 65/65/65 
f 65/65/65 50/50/50 49/49/49 
f 66/66/66 65/65/65 49/49/49 
f 64/64/64 51/51/51 48/48/48 
f 64/64/64 67/67/67 51/51/51 
f 66/66/66 49/49/49 52/52/52 
f 68/68/68 66/66/66 52/52/52 
f 67/67/67 53/53/53 51/51/51 
f 67/67/67 69/69/69 53/53/53 
f 68/68/68 52/52/52 56/56/56 
f 70/70/70 68/68/68 56/56/56 
f 69/69/69 54/54/54 53/53/53 
f 69/69/69 71/71/71 54/54/54 
f 70/70/70 56/56/56 55/55/55 
f 72/72/72 70/70/70 55/55/55 
f 71/71/71 57/57/57 54/54/54 
f 71/71/71 73/73/73 57/57/57 
f 72/72/72 55/55/55 58/58/58 
f 74/74/74 72/72/72 58/58/58 
f 73/73/73 59/59/59 57/57/57 
f 73/73/73 75/75/75 59/59/59 
f 74/74/74 58/58/58 60/60/60 
f 75/75/75 61/61/61 59/59/59 
f 65/65/65 63/63/63 50/50/50 
f 62/62/62 64/64/64 48/48/48 
f 54/54/54 76/76/76 77/77/77 
f 54/54/54 56/56/56 76/76/76 
f 56/56/56 78/78/78 76/76/76 
f 56/56/56 79/79/79 78/78/78 
f 56/56/56 52/52/52 79/79/79 
f 52/52/52 80/80/80 79/79/79 
f 52/52/52 53/53/53 80/80/80 
f 53/53/53 81/81/81 80/80/80 
f 53/53/53 54/54/54 81/81/81 
f 54/54/54 77/77/77 81/81/81 
f 77/77/77 82/82/82 83/83/83 
f 77/77/77 76/76/76 82/82/82 
f 76/76/76 84/84/84 82/82/82 
f 76/76/76 78/78/78 84/84/84 
f 78/78/78 85/85/85 84/84/84 
f 78/78/78 79/79/79 85/85/85 
f 79/79/79 86/86/86 85/85/85 
f 79/79/79 80/80/80 86/86/86 
f 80/80/80 87/87/87 86/86/86 
f 80/80/80 81/81/81 87/87/87 
f 81/81/81 83/83/83 87/87/87 
f 81/81/81 77/77/77 83/83/83 
f 83/83/83 82/82/82 88/88/88 
f 82/82/82 84/84/84 88/88/88 
f 84/84/84 85/85/85 88/88/88 
f 85/85/85 86/86/86 88/88/88 
f 86/86/86 87/87/87 88/88/88 
f 87/87/87 83/83/83 88/88/88 
# 0 polygons - 168 triangles

