# Blender v2.79 (sub 0) OBJ File: ''
# www.blender.org
mtllib lamp.mtl
o street_lamp
v 0.309460 0.001557 -0.063698
v 0.235908 0.001557 -0.063698
v 0.235908 0.673288 -0.063698
v 0.309460 0.673288 -0.063698
v 0.199131 0.001557 0.000000
v 0.199131 0.673288 0.000000
v 0.235908 0.001557 0.063698
v 0.235908 0.673288 0.063698
v 0.309460 0.001557 0.063698
v 0.309460 0.673288 0.063698
v 0.346237 0.001557 0.000000
v 0.346237 0.673288 0.000000
v 0.247815 0.807475 -0.043074
v 0.297553 0.807475 -0.043074
v 0.222947 0.807475 0.000000
v 0.247815 0.807475 0.043074
v 0.297553 0.807475 0.043074
v 0.322422 0.807475 0.000000
v 0.247815 3.009341 -0.043074
v 0.297553 3.009341 -0.043074
v 0.222947 3.009341 0.000000
v 0.247815 3.009341 0.043074
v 0.297553 3.009341 0.043074
v 0.322422 3.009341 0.000000
v -0.284329 3.048418 0.241438
v 0.332764 2.994430 0.175042
v 0.305632 3.106533 0.139751
v -0.187040 3.149637 0.192759
v 0.305632 3.106533 -0.139749
v -0.187040 3.149637 -0.192757
v 0.332764 2.994430 -0.175042
v -0.284329 3.048418 -0.241438
v -0.220940 2.970470 -0.177183
v 0.156699 2.937431 -0.128457
v 0.156699 2.937431 0.128457
v -0.220940 2.970470 0.177183
v 0.213358 3.005344 -0.162699
v -0.264945 3.047190 -0.224412
v 0.213358 3.005344 0.162699
v -0.264945 3.047190 0.224412
vt 0.978294 0.478585
vt 0.979021 0.539484
vt 0.680740 0.538885
vt 0.680081 0.483567
vt 0.978484 0.600380
vt 0.680255 0.594204
vt 0.976773 0.660865
vt 0.678428 0.650271
vt 0.975311 0.720639
vt 0.674608 0.707683
vt 0.974744 0.358313
vt 0.976394 0.418094
vt 0.678080 0.427491
vt 0.674081 0.370060
vt 0.620637 0.538767
vt 0.620174 0.491454
vt 0.620322 0.586076
vt 0.618989 0.631594
vt 0.614824 0.672944
vt 0.618699 0.445932
vt 0.614405 0.404561
vt 0.988389 0.813606
vt 0.987587 0.853812
vt 0.016165 0.853600
vt 0.015660 0.813482
vt 0.988092 0.893930
vt 0.016671 0.893804
vt 0.988600 0.934029
vt 0.017181 0.934024
vt 0.989109 0.974175
vt 0.017690 0.974200
vt 0.987370 0.733209
vt 0.987880 0.773386
vt 0.015152 0.773382
vt 0.017239 0.733236
vt 0.538148 0.615390
vt 0.491379 0.615248
vt 0.468117 0.574676
vt 0.491625 0.534245
vt 0.561654 0.574957
vt 0.538392 0.534386
vt 0.537215 0.431716
vt 0.553027 0.459103
vt 0.489778 0.459104
vt 0.505590 0.431716
vt 0.537217 0.486491
vt 0.505591 0.486493
vt 0.940577 0.320210
vt 0.587910 0.289190
vt 0.613545 0.236946
vt 0.895100 0.261732
vt 0.613597 0.106476
vt 0.895173 0.081783
vt 0.587987 0.054240
vt 0.940665 0.023303
vt 0.420402 0.078236
vt 0.125029 0.108496
vt 0.126665 0.252211
vt 0.422681 0.278610
vt 0.547868 0.253397
vt 0.547943 0.089985
vt 0.975128 0.059088
vt 0.975004 0.284485
vt 0.562107 0.056438
vt 0.635232 0.073159
vt 0.929725 0.037134
vt 0.562944 0.287018
vt 0.635995 0.271509
vt 0.929154 0.305976
vt 0.486213 0.026959
vt 0.060847 0.068873
vt 0.063333 0.297925
vt 0.489565 0.329213
vn 0.0000 0.0000 -1.0000
vn -0.8660 0.0000 -0.5000
vn -0.8660 -0.0000 0.5000
vn 0.0000 -0.0000 1.0000
vn 0.8660 -0.0000 0.5000
vn 0.8660 0.0000 -0.5000
vn 0.0000 0.1519 -0.9884
vn -0.8560 0.1519 -0.4942
vn -0.8560 0.1519 0.4942
vn 0.0000 0.1519 0.9884
vn 0.8560 0.1519 0.4942
vn 0.8560 0.1519 -0.4942
vn 0.0000 -1.0000 -0.0000
vn 0.0000 1.0000 -0.0000
vn 0.1293 0.3261 0.9365
vn 0.0872 0.9962 0.0000
vn 0.1293 0.3261 -0.9365
vn -0.0872 -0.9962 0.0000
vn 0.9719 0.2352 0.0000
vn -0.7210 0.6930 0.0000
vn -0.0898 -0.9957 0.0227
vn -0.0910 -0.9958 0.0000
vn -0.0898 -0.9957 -0.0227
vn -0.0632 -0.9980 0.0000
vn 0.0686 -0.4942 -0.8667
vn 0.7679 -0.6406 0.0000
vn 0.0686 -0.4942 0.8667
vn -0.8674 -0.4975 0.0000
usemtl blinn1SG
s 1
f 1/1/1 2/2/1 3/3/1 4/4/1
f 2/2/2 5/5/2 6/6/2 3/3/2
f 5/5/3 7/7/3 8/8/3 6/6/3
f 7/7/4 9/9/4 10/10/4 8/8/4
f 9/11/5 11/12/5 12/13/5 10/14/5
f 11/12/6 1/1/6 4/4/6 12/13/6
f 4/4/7 3/3/7 13/15/7 14/16/7
f 3/3/8 6/6/8 15/17/8 13/15/8
f 6/6/9 8/8/9 16/18/9 15/17/9
f 8/8/10 10/10/10 17/19/10 16/18/10
f 10/14/11 12/13/11 18/20/11 17/21/11
f 12/13/12 4/4/12 14/16/12 18/20/12
f 14/22/1 13/23/1 19/24/1 20/25/1
f 13/23/2 15/26/2 21/27/2 19/24/2
f 15/26/3 16/28/3 22/29/3 21/27/3
f 16/28/4 17/30/4 23/31/4 22/29/4
f 17/32/5 18/33/5 24/34/5 23/35/5
f 18/33/6 14/22/6 20/25/6 24/34/6
f 9/36/13 7/37/13 5/38/13 2/39/13
f 11/40/13 9/36/13 2/39/13 1/41/13
f 19/42/14 21/43/14 24/44/14 20/45/14
f 21/43/14 22/46/14 23/47/14 24/44/14
f 25/48/15 26/49/15 27/50/15 28/51/15
f 28/51/16 27/50/16 29/52/16 30/53/16
f 30/53/17 29/52/17 31/54/17 32/55/17
f 33/56/18 34/57/18 35/58/18 36/59/18
f 26/60/19 31/61/19 29/52/19 27/50/19
f 32/62/20 25/63/20 28/51/20 30/53/20
f 32/55/21 31/64/21 37/65/21 38/66/21
f 31/64/22 26/67/22 39/68/22 37/65/22
f 26/67/23 25/48/23 40/69/23 39/68/23
f 25/48/24 32/55/24 38/66/24 40/69/24
f 38/70/25 37/71/25 34/57/25 33/56/25
f 37/71/26 39/72/26 35/58/26 34/57/26
f 39/72/27 40/73/27 36/59/27 35/58/27
f 40/73/28 38/70/28 33/56/28 36/59/28
