# 3ds Max Wavefront OBJ Exporter v0.97b - (c)2007 guruware
# File Created: 24.11.2021 19:43:12

mtllib rio_congelado.mtl

#
# object Cylinder001
#

v  133.5715 0.0000 -48.3792
v  18.8223 0.0000 16.8494
v  15.1103 0.0000 13.7347
v  108.8902 0.0000 -91.1285
v  142.1432 0.0000 0.2335
v  133.5715 1.3854 -48.3792
v  142.1432 1.3854 0.2335
v  108.8902 1.3854 -91.1285
v  71.0762 0.0000 -122.8582
v  71.0762 1.3854 -122.8582
v  24.6905 0.0000 -139.7411
v  24.6905 1.3854 -139.7411
v  -24.6721 0.0000 -139.7411
v  -24.6721 1.3854 -139.7411
v  -71.0578 0.0000 -122.8581
v  -71.0578 1.3854 -122.8581
v  -108.8717 0.0000 -91.1285
v  -108.8717 1.3854 -91.1285
v  -133.5530 0.0000 -48.3792
v  -133.5530 1.3854 -48.3792
v  -142.1248 0.0000 0.2335
v  -142.1248 1.3854 0.2335
v  -133.5531 0.0000 48.8462
v  -133.5531 1.3854 48.8462
v  -108.8718 0.0000 91.5955
v  -108.8718 1.3854 91.5955
v  -71.0578 0.0000 123.3252
v  -71.0578 1.3854 123.3252
v  -24.6721 0.0000 140.2082
v  -24.6721 1.3854 140.2082
v  24.6905 0.0000 140.2082
v  24.6905 1.3854 140.2082
v  71.0762 0.0000 123.3252
v  71.0762 1.3854 123.3252
v  108.8902 0.0000 91.5956
v  108.8902 1.3854 91.5956
v  133.5715 0.0000 48.8463
v  133.5715 1.3854 48.8463
v  15.1103 1.3854 13.7347
v  18.8223 1.3854 16.8494
v  -2.5546 1.3854 34.7868
v  -2.5546 0.0000 34.7868
v  -4.9774 0.0000 30.5902
v  -4.9774 1.3854 30.5902
v  1.1575 1.3854 37.9016
v  5.7110 1.3854 39.5589
v  5.7110 0.0000 39.5589
v  1.1575 0.0000 37.9016
v  10.5567 1.3854 39.5589
v  10.5567 0.0000 39.5589
v  15.1102 1.3854 37.9016
v  15.1102 0.0000 37.9016
v  18.8223 1.3854 34.7868
v  18.8223 0.0000 34.7868
v  21.2452 1.3854 30.5902
v  21.2452 0.0000 30.5902
v  22.0866 1.3854 25.8181
v  22.0866 0.0000 25.8181
v  21.2452 1.3854 21.0460
v  21.2452 0.0000 21.0460
v  10.5567 1.3854 12.0773
v  10.5567 0.0000 12.0773
v  5.7110 1.3854 12.0773
v  5.7110 0.0000 12.0773
v  1.1575 1.3854 13.7347
v  1.1575 0.0000 13.7347
v  -2.5546 1.3854 16.8494
v  -2.5546 0.0000 16.8494
v  -4.9774 1.3854 21.0460
v  -4.9774 0.0000 21.0460
v  -5.8189 1.3854 25.8181
v  -5.8189 0.0000 25.8181
# 72 vertices

vn 0.6976 -0.6700 -0.2539
vn -0.5081 -0.7484 0.4264
vn -0.3317 -0.7483 0.5745
vn 0.5687 -0.6700 -0.4772
vn 0.7423 -0.6700 0.0000
vn 0.6976 0.6700 -0.2539
vn 0.7423 0.6700 0.0000
vn 0.5687 0.6700 -0.4772
vn 0.3712 -0.6700 -0.6429
vn 0.3712 0.6700 -0.6429
vn 0.1289 -0.6700 -0.7311
vn 0.1289 0.6700 -0.7311
vn -0.1289 -0.6701 -0.7310
vn -0.1289 0.6701 -0.7310
vn -0.3712 -0.6701 -0.6428
vn -0.3712 0.6701 -0.6428
vn -0.5686 -0.6701 -0.4772
vn -0.5686 0.6701 -0.4772
vn -0.6975 -0.6701 -0.2539
vn -0.6975 0.6701 -0.2539
vn -0.7423 -0.6701 0.0000
vn -0.7423 0.6701 0.0000
vn -0.6976 -0.6700 0.2539
vn -0.6976 0.6700 0.2539
vn -0.5687 -0.6700 0.4772
vn -0.5687 0.6700 0.4772
vn -0.3712 -0.6700 0.6429
vn -0.3712 0.6700 0.6429
vn -0.1289 -0.6700 0.7311
vn -0.1289 0.6700 0.7311
vn 0.1289 -0.6700 0.7311
vn 0.1289 0.6700 0.7311
vn 0.3712 -0.6700 0.6429
vn 0.3712 0.6700 0.6429
vn 0.5687 -0.6700 0.4772
vn 0.5687 0.6700 0.4772
vn 0.6976 -0.6700 0.2539
vn 0.6976 0.6700 0.2539
vn -0.3316 0.7484 0.5744
vn -0.5081 0.7484 0.4264
vn 0.5081 0.7484 -0.4264
vn 0.5081 -0.7484 -0.4264
vn 0.6233 -0.7484 -0.2269
vn 0.6233 0.7484 -0.2269
vn 0.3316 0.7484 -0.5744
vn 0.1152 0.7484 -0.6532
vn 0.1152 -0.7484 -0.6532
vn 0.3317 -0.7483 -0.5745
vn -0.1152 0.7484 -0.6532
vn -0.1152 -0.7484 -0.6532
vn -0.3316 0.7484 -0.5744
vn -0.3316 -0.7484 -0.5744
vn -0.5081 0.7483 -0.4264
vn -0.5081 -0.7484 -0.4264
vn -0.6232 0.7484 -0.2269
vn -0.6233 -0.7483 -0.2269
vn -0.6633 0.7483 -0.0000
vn -0.6633 -0.7484 0.0000
vn -0.6233 0.7484 0.2269
vn -0.6233 -0.7484 0.2269
vn -0.1152 0.7483 0.6533
vn -0.1152 -0.7484 0.6532
vn 0.1152 0.7484 0.6532
vn 0.1152 -0.7484 0.6532
vn 0.3316 0.7484 0.5744
vn 0.3316 -0.7484 0.5744
vn 0.5081 0.7484 0.4264
vn 0.5081 -0.7484 0.4264
vn 0.6233 0.7484 0.2269
vn 0.6233 -0.7484 0.2269
vn 0.6633 0.7484 0.0000
vn 0.6633 -0.7484 0.0000
# 72 vertex normals

vt 0.9698 0.6736 0.0000
vt 0.5662 0.4406 0.0000
vt 0.5531 0.4518 0.0000
vt 0.8830 0.8264 0.0000
vt 1.0000 0.5000 0.0000
vt 0.9698 0.6736 1.0000
vt 1.0000 0.5000 1.0000
vt 0.8830 0.8264 1.0000
vt 0.7500 0.9397 0.0000
vt 0.7500 0.9397 1.0000
vt 0.5868 1.0000 0.0000
vt 0.5868 1.0000 1.0000
vt 0.4132 1.0000 0.0000
vt 0.4132 1.0000 1.0000
vt 0.2500 0.9397 0.0000
vt 0.2500 0.9397 1.0000
vt 0.1170 0.8264 0.0000
vt 0.1170 0.8264 1.0000
vt 0.0302 0.6736 0.0000
vt 0.0302 0.6736 1.0000
vt -0.0000 0.5000 0.0000
vt -0.0000 0.5000 1.0000
vt 0.0302 0.3264 0.0000
vt 0.0302 0.3264 1.0000
vt 0.1170 0.1736 0.0000
vt 0.1170 0.1736 1.0000
vt 0.2500 0.0603 0.0000
vt 0.2500 0.0603 1.0000
vt 0.4132 0.0000 0.0000
vt 0.4132 0.0000 1.0000
vt 0.5868 0.0000 0.0000
vt 0.5868 0.0000 1.0000
vt 0.7500 0.0603 0.0000
vt 0.7500 0.0603 1.0000
vt 0.8830 0.1736 0.0000
vt 0.8830 0.1736 1.0000
vt 0.9698 0.3264 0.0000
vt 0.9698 0.3264 1.0000
vt 0.5531 0.4518 1.0000
vt 0.5662 0.4406 1.0000
vt 0.4910 0.3766 1.0000
vt 0.4910 0.3766 0.0000
vt 0.4825 0.3916 0.0000
vt 0.4825 0.3916 1.0000
vt 0.5040 0.3654 1.0000
vt 0.5201 0.3595 1.0000
vt 0.5201 0.3595 0.0000
vt 0.5040 0.3654 0.0000
vt 0.5371 0.3595 1.0000
vt 0.5371 0.3595 0.0000
vt 0.5531 0.3654 1.0000
vt 0.5531 0.3654 0.0000
vt 0.5662 0.3766 1.0000
vt 0.5662 0.3766 0.0000
vt 0.5747 0.3916 1.0000
vt 0.5747 0.3916 0.0000
vt 0.5777 0.4086 1.0000
vt 0.5777 0.4086 0.0000
vt 0.5747 0.4257 1.0000
vt 0.5747 0.4257 0.0000
vt 0.5371 0.4577 1.0000
vt 0.5371 0.4577 0.0000
vt 0.5201 0.4577 1.0000
vt 0.5201 0.4577 0.0000
vt 0.5040 0.4518 1.0000
vt 0.5040 0.4518 0.0000
vt 0.4910 0.4406 1.0000
vt 0.4910 0.4406 0.0000
vt 0.4825 0.4257 1.0000
vt 0.4825 0.4257 0.0000
vt 0.4795 0.4086 1.0000
vt 0.4795 0.4086 0.0000
# 72 texture coords

o Cylinder001
g Cylinder001
usemtl Material__25
s 1
f 1/1/1 2/2/2 3/3/3 4/4/4 
s 8
f 5/5/5 1/1/1 6/6/6 7/7/7 
f 6/6/6 1/1/1 4/4/4 8/8/8 
f 8/8/8 4/4/4 9/9/9 10/10/10 
f 9/9/9 11/11/11 12/12/12 10/10/10 
f 12/12/12 11/11/11 13/13/13 14/14/14 
f 13/13/13 15/15/15 16/16/16 14/14/14 
f 15/15/15 17/17/17 18/18/18 16/16/16 
f 18/18/18 17/17/17 19/19/19 20/20/20 
f 20/20/20 19/19/19 21/21/21 22/22/22 
f 22/22/22 21/21/21 23/23/23 24/24/24 
f 23/23/23 25/25/25 26/26/26 24/24/24 
f 26/26/26 25/25/25 27/27/27 28/28/28 
f 27/27/27 29/29/29 30/30/30 28/28/28 
f 30/30/30 29/29/29 31/31/31 32/32/32 
f 32/32/32 31/31/31 33/33/33 34/34/34 
f 33/33/33 35/35/35 36/36/36 34/34/34 
f 36/36/36 35/35/35 37/37/37 38/38/38 
f 38/38/38 37/37/37 5/5/5 7/7/7 
s 1
f 39/39/39 40/40/40 6/6/6 8/8/8 
s 2
f 41/41/41 42/42/42 43/43/43 44/44/44 
f 45/45/45 46/46/46 47/47/47 48/48/48 
f 46/46/46 49/49/49 50/50/50 47/47/47 
f 50/50/50 49/49/49 51/51/51 52/52/52 
f 51/51/51 53/53/53 54/54/54 52/52/52 
f 53/53/53 55/55/55 56/56/56 54/54/54 
f 55/55/55 57/57/57 58/58/58 56/56/56 
f 58/58/58 57/57/57 59/59/59 60/60/60 
f 59/59/59 40/40/40 2/2/2 60/60/60 
f 40/40/40 39/39/39 3/3/3 2/2/2 
f 39/39/39 61/61/61 62/62/62 3/3/3 
f 61/61/61 63/63/63 64/64/64 62/62/62 
f 64/64/64 63/63/63 65/65/65 66/66/66 
f 66/66/66 65/65/65 67/67/67 68/68/68 
f 68/68/68 67/67/67 69/69/69 70/70/70 
f 70/70/70 69/69/69 71/71/71 72/72/72 
f 72/72/72 71/71/71 44/44/44 43/43/43 
f 41/41/41 45/45/45 48/48/48 42/42/42 
s 1
f 52/52/52 33/33/33 31/31/31 50/50/50 
f 47/47/47 50/50/50 31/31/31 29/29/29 
f 54/54/54 35/35/35 33/33/33 52/52/52 
f 48/48/48 47/47/47 29/29/29 27/27/27 
f 56/56/56 37/37/37 35/35/35 54/54/54 
f 27/27/27 25/25/25 42/42/42 48/48/48 
f 25/25/25 23/23/23 43/43/43 42/42/42 
f 58/58/58 5/5/5 37/37/37 56/56/56 
f 60/60/60 1/1/1 5/5/5 58/58/58 
f 23/23/23 21/21/21 72/72/72 43/43/43 
f 2/2/2 1/1/1 60/60/60 
f 21/21/21 19/19/19 70/70/70 72/72/72 
f 68/68/68 70/70/70 19/19/19 17/17/17 
f 66/66/66 68/68/68 17/17/17 15/15/15 
f 64/64/64 66/66/66 15/15/15 13/13/13 
f 9/9/9 64/64/64 13/13/13 11/11/11 
f 4/4/4 62/62/62 64/64/64 9/9/9 
f 4/4/4 3/3/3 62/62/62 
f 51/51/51 49/49/49 32/32/32 34/34/34 
f 46/46/46 30/30/30 32/32/32 49/49/49 
f 53/53/53 51/51/51 34/34/34 36/36/36 
f 45/45/45 28/28/28 30/30/30 46/46/46 
f 55/55/55 53/53/53 36/36/36 38/38/38 
f 41/41/41 26/26/26 28/28/28 45/45/45 
f 44/44/44 24/24/24 26/26/26 41/41/41 
f 38/38/38 7/7/7 57/57/57 55/55/55 
f 7/7/7 6/6/6 59/59/59 57/57/57 
f 71/71/71 22/22/22 24/24/24 44/44/44 
f 6/6/6 40/40/40 59/59/59 
f 69/69/69 20/20/20 22/22/22 71/71/71 
f 67/67/67 18/18/18 20/20/20 69/69/69 
f 65/65/65 16/16/16 18/18/18 67/67/67 
f 63/63/63 14/14/14 16/16/16 65/65/65 
f 10/10/10 12/12/12 14/14/14 63/63/63 
f 8/8/8 10/10/10 63/63/63 61/61/61 
f 39/39/39 8/8/8 61/61/61 
# 70 polygons - 4 triangles

#
# object Cylinder002
#

v  18.4583 0.1472 16.9619
v  20.8513 0.1472 21.1081
v  21.6823 0.1472 25.8231
v  7.9016 0.1472 25.8231
v  10.2946 0.1472 12.2470
v  14.7920 0.1472 13.8845
v  1.0112 0.1472 13.8845
v  5.5086 0.1472 12.2470
v  -2.6551 0.1472 16.9619
v  -5.0481 0.1472 21.1081
v  -5.0481 0.1472 30.5380
v  -5.8791 0.1472 25.8231
v  1.0112 0.1472 37.7616
v  -2.6551 0.1472 34.6842
v  10.2946 0.1472 39.3991
v  5.5086 0.1472 39.3991
v  18.4583 0.1472 34.6842
v  14.7920 0.1472 37.7616
v  20.8513 0.1472 30.5380
v  20.8513 0.2494 21.1081
v  21.6823 0.2494 25.8231
v  18.4583 0.2494 16.9619
v  14.7920 0.2494 13.8845
v  10.2946 0.2494 12.2470
v  5.5086 0.2494 12.2470
v  1.0112 0.2494 13.8845
v  -2.6551 0.2494 16.9619
v  -5.0481 0.2494 21.1081
v  -5.8791 0.2494 25.8231
v  -5.0481 0.2494 30.5380
v  -2.6551 0.2494 34.6842
v  1.0112 0.2494 37.7616
v  5.5086 0.2494 39.3991
v  10.2946 0.2494 39.3991
v  14.7920 0.2494 37.7616
v  18.4583 0.2494 34.6842
v  20.8513 0.2494 30.5380
v  21.6823 0.3517 25.8231
v  20.8513 0.3517 21.1081
v  18.4583 0.3517 16.9619
v  14.7920 0.3517 13.8845
v  10.2946 0.3517 12.2470
v  5.5086 0.3517 12.2470
v  1.0112 0.3517 13.8845
v  -2.6551 0.3517 16.9619
v  -5.0481 0.3517 21.1081
v  -5.8791 0.3517 25.8231
v  -5.0481 0.3517 30.5380
v  -2.6551 0.3517 34.6842
v  1.0112 0.3517 37.7616
v  5.5086 0.3517 39.3991
v  10.2946 0.3517 39.3991
v  14.7920 0.3517 37.7616
v  18.4583 0.3517 34.6842
v  20.8513 0.3517 30.5380
v  21.6823 0.4539 25.8231
v  20.8513 0.4539 21.1081
v  18.4583 0.4539 16.9619
v  14.7920 0.4539 13.8845
v  10.2946 0.4539 12.2470
v  5.5086 0.4539 12.2470
v  1.0112 0.4539 13.8845
v  -2.6551 0.4539 16.9619
v  -5.0481 0.4539 21.1081
v  -5.8791 0.4539 25.8231
v  -5.0481 0.4539 30.5380
v  -2.6551 0.4539 34.6842
v  1.0112 0.4539 37.7616
v  5.5086 0.4539 39.3991
v  10.2946 0.4539 39.3991
v  14.7920 0.4539 37.7616
v  18.4583 0.4539 34.6842
v  20.8513 0.4539 30.5380
v  20.8513 0.5562 21.1081
v  21.6823 0.5562 25.8231
v  18.4583 0.5562 16.9619
v  14.7920 0.5562 13.8845
v  10.2946 0.5562 12.2470
v  5.5086 0.5562 12.2470
v  1.0112 0.5562 13.8845
v  -2.6551 0.5562 16.9619
v  -5.0481 0.5562 21.1081
v  -5.8791 0.5562 25.8231
v  -5.0481 0.5562 30.5380
v  -2.6551 0.5562 34.6842
v  1.0112 0.5562 37.7616
v  5.5086 0.5562 39.3991
v  10.2946 0.5562 39.3991
v  14.7920 0.5562 37.7616
v  18.4583 0.5562 34.6842
v  20.8513 0.5562 30.5380
v  20.8513 0.6584 21.1081
v  21.6823 0.6584 25.8231
v  18.4583 0.6584 16.9619
v  14.7920 0.6584 13.8845
v  10.2946 0.6584 12.2470
v  5.5086 0.6584 12.2470
v  1.0112 0.6584 13.8845
v  -2.6551 0.6584 16.9619
v  -5.0481 0.6584 21.1081
v  -5.8791 0.6584 25.8231
v  -5.0481 0.6584 30.5380
v  -2.6551 0.6584 34.6842
v  1.0112 0.6584 37.7616
v  5.5086 0.6584 39.3991
v  10.2946 0.6584 39.3991
v  14.7920 0.6584 37.7616
v  18.4583 0.6584 34.6842
v  20.8513 0.6584 30.5380
v  7.9016 0.6584 25.8231
# 110 vertices

vn 0.5687 -0.6700 -0.4772
vn 0.6976 -0.6700 -0.2539
vn 0.7423 -0.6700 0.0000
vn 0.0000 -1.0000 -0.0000
vn 0.1289 -0.6700 -0.7311
vn 0.3712 -0.6700 -0.6429
vn -0.3712 -0.6700 -0.6429
vn -0.1289 -0.6700 -0.7311
vn -0.5687 -0.6700 -0.4772
vn -0.6976 -0.6700 -0.2539
vn -0.6976 -0.6700 0.2539
vn -0.7423 -0.6700 -0.0000
vn -0.3712 -0.6700 0.6429
vn -0.5687 -0.6700 0.4772
vn 0.1289 -0.6701 0.7310
vn -0.1289 -0.6700 0.7311
vn 0.5687 -0.6700 0.4772
vn 0.3712 -0.6701 0.6428
vn 0.6976 -0.6700 0.2539
vn 0.9397 -0.0000 -0.3420
vn 1.0000 -0.0000 0.0000
vn 0.7660 -0.0000 -0.6428
vn 0.5000 -0.0000 -0.8660
vn 0.1736 -0.0000 -0.9848
vn -0.1736 -0.0000 -0.9848
vn -0.5000 -0.0000 -0.8660
vn -0.7660 -0.0000 -0.6428
vn -0.9397 -0.0000 -0.3420
vn -1.0000 -0.0000 -0.0000
vn -0.9397 -0.0000 0.3420
vn -0.7660 -0.0000 0.6428
vn -0.5000 -0.0000 0.8660
vn -0.1736 -0.0000 0.9848
vn 0.1736 -0.0000 0.9848
vn 0.5000 -0.0000 0.8660
vn 0.7660 -0.0000 0.6428
vn 0.9397 -0.0000 0.3420
vn 1.0000 0.0000 0.0000
vn 0.9397 0.0000 -0.3420
vn 0.7660 0.0000 -0.6428
vn 0.5000 0.0000 -0.8660
vn 0.1736 0.0000 -0.9848
vn -0.1736 0.0000 -0.9848
vn -0.5000 0.0000 -0.8660
vn -0.7660 0.0000 -0.6428
vn -0.9397 0.0000 -0.3420
vn -1.0000 0.0000 -0.0000
vn -0.9397 0.0000 0.3420
vn -0.7660 0.0000 0.6428
vn -0.5000 0.0000 0.8660
vn -0.1736 0.0000 0.9848
vn 0.1736 0.0000 0.9848
vn 0.5000 0.0000 0.8660
vn 0.7660 0.0000 0.6428
vn 0.9397 0.0000 0.3420
vn 0.6976 0.6700 -0.2539
vn 0.7423 0.6700 0.0000
vn 0.5687 0.6700 -0.4772
vn 0.3712 0.6700 -0.6429
vn 0.1289 0.6700 -0.7311
vn -0.1289 0.6700 -0.7311
vn -0.3712 0.6700 -0.6429
vn -0.5687 0.6700 -0.4772
vn -0.6976 0.6700 -0.2539
vn -0.7423 0.6700 -0.0000
vn -0.6976 0.6700 0.2539
vn -0.5687 0.6700 0.4772
vn -0.3712 0.6700 0.6429
vn -0.1289 0.6700 0.7311
vn 0.1289 0.6701 0.7310
vn 0.3712 0.6701 0.6428
vn 0.5687 0.6700 0.4772
vn 0.6976 0.6700 0.2539
vn 0.0000 1.0000 -0.0000
# 74 vertex normals

vt 0.8830 0.8264 0.0000
vt 0.9698 0.6736 0.0000
vt 1.0000 0.5000 0.0000
vt 0.5000 0.5000 0.0000
vt 0.5868 1.0000 0.0000
vt 0.7500 0.9397 0.0000
vt 0.2500 0.9397 0.0000
vt 0.4132 1.0000 0.0000
vt 0.1170 0.8264 0.0000
vt 0.0302 0.6736 0.0000
vt 0.0302 0.3264 0.0000
vt 0.0000 0.5000 0.0000
vt 0.2500 0.0603 0.0000
vt 0.1170 0.1736 0.0000
vt 0.5868 0.0000 0.0000
vt 0.4132 0.0000 0.0000
vt 0.8830 0.1736 0.0000
vt 0.7500 0.0603 0.0000
vt 0.9698 0.3264 0.0000
vt 0.9698 0.6736 0.1999
vt 1.0000 0.5000 0.1999
vt 0.8830 0.8264 0.1999
vt 0.7500 0.9397 0.1999
vt 0.5868 1.0000 0.1999
vt 0.4132 1.0000 0.1999
vt 0.2500 0.9397 0.1999
vt 0.1170 0.8264 0.1999
vt 0.0302 0.6736 0.1999
vt 0.0000 0.5000 0.1999
vt 0.0302 0.3264 0.1999
vt 0.1170 0.1736 0.1999
vt 0.2500 0.0603 0.1999
vt 0.4132 0.0000 0.1999
vt 0.5868 0.0000 0.1999
vt 0.7500 0.0603 0.1999
vt 0.8830 0.1736 0.1999
vt 0.9698 0.3264 0.1999
vt 1.0000 0.5000 0.4000
vt 0.9698 0.6736 0.4000
vt 0.8830 0.8264 0.4000
vt 0.7500 0.9397 0.4000
vt 0.5868 1.0000 0.4000
vt 0.4132 1.0000 0.4000
vt 0.2500 0.9397 0.4000
vt 0.1170 0.8264 0.4000
vt 0.0302 0.6736 0.4000
vt 0.0000 0.5000 0.4000
vt 0.0302 0.3264 0.4000
vt 0.1170 0.1736 0.4000
vt 0.2500 0.0603 0.4000
vt 0.4132 0.0000 0.4000
vt 0.5868 0.0000 0.4000
vt 0.7500 0.0603 0.4000
vt 0.8830 0.1736 0.4000
vt 0.9698 0.3264 0.4000
vt 1.0000 0.5000 0.6000
vt 0.9698 0.6736 0.6000
vt 0.8830 0.8264 0.6000
vt 0.7500 0.9397 0.6000
vt 0.5868 1.0000 0.6000
vt 0.4132 1.0000 0.6000
vt 0.2500 0.9397 0.6000
vt 0.1170 0.8264 0.6000
vt 0.0302 0.6736 0.6000
vt 0.0000 0.5000 0.6000
vt 0.0302 0.3264 0.6000
vt 0.1170 0.1736 0.6000
vt 0.2500 0.0603 0.6000
vt 0.4132 0.0000 0.6000
vt 0.5868 0.0000 0.6000
vt 0.7500 0.0603 0.6000
vt 0.8830 0.1736 0.6000
vt 0.9698 0.3264 0.6000
vt 0.9698 0.6736 0.8001
vt 1.0000 0.5000 0.8001
vt 0.8830 0.8264 0.8001
vt 0.7500 0.9397 0.8001
vt 0.5868 1.0000 0.8001
vt 0.4132 1.0000 0.8001
vt 0.2500 0.9397 0.8001
vt 0.1170 0.8264 0.8001
vt 0.0302 0.6736 0.8001
vt 0.0000 0.5000 0.8001
vt 0.0302 0.3264 0.8001
vt 0.1170 0.1736 0.8001
vt 0.2500 0.0603 0.8001
vt 0.4132 0.0000 0.8001
vt 0.5868 0.0000 0.8001
vt 0.7500 0.0603 0.8001
vt 0.8830 0.1736 0.8001
vt 0.9698 0.3264 0.8001
vt 0.9698 0.6736 1.0000
vt 1.0000 0.5000 1.0000
vt 0.8830 0.8264 1.0000
vt 0.7500 0.9397 1.0000
vt 0.5868 1.0000 1.0000
vt 0.4132 1.0000 1.0000
vt 0.2500 0.9397 1.0000
vt 0.1170 0.8264 1.0000
vt 0.0302 0.6736 1.0000
vt 0.0000 0.5000 1.0000
vt 0.0302 0.3264 1.0000
vt 0.1170 0.1736 1.0000
vt 0.2500 0.0603 1.0000
vt 0.4132 0.0000 1.0000
vt 0.5868 0.0000 1.0000
vt 0.7500 0.0603 1.0000
vt 0.8830 0.1736 1.0000
vt 0.9698 0.3264 1.0000
vt 0.5000 0.5000 1.0000
# 110 texture coords

o Cylinder002
g Cylinder002
usemtl Material__27
s 1
f 73/73/73 74/74/74 75/75/75 76/76/76 
f 77/77/77 78/78/78 73/73/73 76/76/76 
f 77/77/77 76/76/76 79/79/79 80/80/80 
f 81/81/81 79/79/79 76/76/76 82/82/82 
f 83/83/83 84/84/84 82/82/82 76/76/76 
f 85/85/85 86/86/86 83/83/83 76/76/76 
f 87/87/87 88/88/88 85/85/85 76/76/76 
f 89/89/89 90/90/90 87/87/87 76/76/76 
f 75/75/75 91/91/91 89/89/89 76/76/76 
s 8
f 92/92/92 93/93/93 75/75/75 74/74/74 
f 92/92/92 74/74/74 73/73/73 94/94/94 
f 78/78/78 95/95/95 94/94/94 73/73/73 
f 95/95/95 78/78/78 77/77/77 96/96/96 
f 96/96/96 77/77/77 80/80/80 97/97/97 
f 79/79/79 98/98/98 97/97/97 80/80/80 
f 98/98/98 79/79/79 81/81/81 99/99/99 
f 99/99/99 81/81/81 82/82/82 100/100/100 
f 101/101/101 100/100/100 82/82/82 84/84/84 
f 102/102/102 101/101/101 84/84/84 83/83/83 
f 103/103/103 102/102/102 83/83/83 86/86/86 
f 103/103/103 86/86/86 85/85/85 104/104/104 
f 88/88/88 105/105/105 104/104/104 85/85/85 
f 87/87/87 106/106/106 105/105/105 88/88/88 
f 90/90/90 107/107/107 106/106/106 87/87/87 
f 108/108/108 107/107/107 90/90/90 89/89/89 
f 108/108/108 89/89/89 91/91/91 109/109/109 
f 109/109/109 91/91/91 75/75/75 93/93/93 
f 110/110/110 93/93/93 92/92/92 111/111/111 
f 112/112/112 111/111/111 92/92/92 94/94/94 
f 94/94/94 95/95/95 113/113/113 112/112/112 
f 96/96/96 114/114/114 113/113/113 95/95/95 
f 97/97/97 115/115/115 114/114/114 96/96/96 
f 98/98/98 116/116/116 115/115/115 97/97/97 
f 99/99/99 117/117/117 116/116/116 98/98/98 
f 117/117/117 99/99/99 100/100/100 118/118/118 
f 101/101/101 119/119/119 118/118/118 100/100/100 
f 119/119/119 101/101/101 102/102/102 120/120/120 
f 103/103/103 121/121/121 120/120/120 102/102/102 
f 104/104/104 122/122/122 121/121/121 103/103/103 
f 104/104/104 105/105/105 123/123/123 122/122/122 
f 123/123/123 105/105/105 106/106/106 124/124/124 
f 106/106/106 107/107/107 125/125/125 124/124/124 
f 125/125/125 107/107/107 108/108/108 126/126/126 
f 108/108/108 109/109/109 127/127/127 126/126/126 
f 109/109/109 93/93/93 110/110/110 127/127/127 
f 128/128/110 110/110/110 111/111/111 129/129/111 
f 130/130/112 129/129/111 111/111/111 112/112/112 
f 130/130/112 112/112/112 113/113/113 131/131/113 
f 114/114/114 132/132/114 131/131/113 113/113/113 
f 114/114/114 115/115/115 133/133/115 132/132/114 
f 116/116/116 134/134/116 133/133/115 115/115/115 
f 134/134/116 116/116/116 117/117/117 135/135/117 
f 136/136/118 135/135/117 117/117/117 118/118/118 
f 118/118/118 119/119/119 137/137/119 136/136/118 
f 137/137/119 119/119/119 120/120/120 138/138/120 
f 139/139/121 138/138/120 120/120/120 121/121/121 
f 139/139/121 121/121/121 122/122/122 140/140/122 
f 141/141/123 140/140/122 122/122/122 123/123/123 
f 124/124/124 142/142/124 141/141/123 123/123/123 
f 124/124/124 125/125/125 143/143/125 142/142/124 
f 143/143/125 125/125/125 126/126/126 144/144/126 
f 126/126/126 127/127/127 145/145/127 144/144/126 
f 128/128/110 145/145/127 127/127/127 110/110/110 
f 129/129/111 146/146/111 147/147/110 128/128/110 
f 148/148/112 146/146/111 129/129/111 130/130/112 
f 131/131/113 149/149/113 148/148/112 130/130/112 
f 131/131/113 132/132/114 150/150/114 149/149/113 
f 133/133/115 151/151/115 150/150/114 132/132/114 
f 133/133/115 134/134/116 152/152/116 151/151/115 
f 152/152/116 134/134/116 135/135/117 153/153/117 
f 135/135/117 136/136/118 154/154/118 153/153/117 
f 155/155/119 154/154/118 136/136/118 137/137/119 
f 137/137/119 138/138/120 156/156/120 155/155/119 
f 157/157/121 156/156/120 138/138/120 139/139/121 
f 139/139/121 140/140/122 158/158/122 157/157/121 
f 159/159/123 158/158/122 140/140/122 141/141/123 
f 141/141/123 142/142/124 160/160/124 159/159/123 
f 161/161/125 160/160/124 142/142/124 143/143/125 
f 143/143/125 144/144/126 162/162/126 161/161/125 
f 145/145/127 163/163/127 162/162/126 144/144/126 
f 147/147/110 163/163/127 145/145/127 128/128/110 
f 147/147/110 146/146/111 164/164/128 165/165/129 
f 164/164/128 146/146/111 148/148/112 166/166/130 
f 149/149/113 167/167/131 166/166/130 148/148/112 
f 168/168/132 167/167/131 149/149/113 150/150/114 
f 151/151/115 169/169/133 168/168/132 150/150/114 
f 169/169/133 151/151/115 152/152/116 170/170/134 
f 153/153/117 171/171/135 170/170/134 152/152/116 
f 171/171/135 153/153/117 154/154/118 172/172/136 
f 155/155/119 173/173/137 172/172/136 154/154/118 
f 173/173/137 155/155/119 156/156/120 174/174/138 
f 157/157/121 175/175/139 174/174/138 156/156/120 
f 175/175/139 157/157/121 158/158/122 176/176/140 
f 159/159/123 177/177/141 176/176/140 158/158/122 
f 178/178/142 177/177/141 159/159/123 160/160/124 
f 161/161/125 179/179/143 178/178/142 160/160/124 
f 179/179/143 161/161/125 162/162/126 180/180/144 
f 163/163/127 181/181/145 180/180/144 162/162/126 
f 163/163/127 147/147/110 165/165/129 181/181/145 
s 1
f 182/182/146 181/181/145 165/165/129 164/164/128 
f 182/182/146 164/164/128 166/166/130 167/167/131 
f 167/167/131 168/168/132 169/169/133 182/182/146 
f 169/169/133 170/170/134 171/171/135 182/182/146 
f 171/171/135 172/172/136 173/173/137 182/182/146 
f 173/173/137 174/174/138 175/175/139 182/182/146 
f 175/175/139 176/176/140 177/177/141 182/182/146 
f 177/177/141 178/178/142 179/179/143 182/182/146 
f 179/179/143 180/180/144 181/181/145 182/182/146 
# 108 polygons

